<?xml version="1.0" encoding="utf-8"?>
<!-- Generator: Adobe Illustrator 22.0.0, SVG Export Plug-In . SVG Version: 6.00 Build 0)  -->
<svg version="1.1" id="图层_1" xmlns="http://www.w3.org/2000/svg" xmlns:xlink="http://www.w3.org/1999/xlink" x="0px" y="0px"
	 viewBox="0 0 64 64" style="enable-background:new 0 0 64 64;" xml:space="preserve">
<style type="text/css">
.st0{fill:#F99C56;}
</style>
	<path class="st0" d="M56.8,51.5L33.6,10.7C33.1,9.8,32,9.4,31.1,10c-0.3,0.2-0.5,0.4-0.7,0.7L7.2,51.5C6.7,52.4,7.1,53.5,8,54
	c0.3,0.2,0.6,0.2,0.9,0.2h46.2c0.7,0,1.3-0.4,1.6-0.9C57.1,52.8,57.1,52.1,56.8,51.5z M38.3,38L34,48.4c-0.3,0.8-1.1,1.3-2,1.3
	c-0.3,0-0.6-0.1-0.8-0.2c-1.1-0.4-1.6-1.7-1.2-2.8l3-7.5h-5.4c-1.2,0-2.2-1-2.2-2.2c0-0.3,0.1-0.7,0.2-1l5.2-10.3
	c0.4-1.1,1.7-1.7,2.8-1.2c1.1,0.4,1.7,1.7,1.2,2.8c0,0.1-0.1,0.2-0.2,0.3L31.2,35h5.1c1.2,0,2.2,1,2.2,2.1
	C38.4,37.4,38.4,37.7,38.3,38L38.3,38z"/>
</svg>
