<?xml version="1.0" encoding="utf-8"?>
<!-- Generator: Adobe Illustrator 22.0.0, SVG Export Plug-In . SVG Version: 6.00 Build 0)  -->
<svg version="1.1" id="图层_1" xmlns="http://www.w3.org/2000/svg" xmlns:xlink="http://www.w3.org/1999/xlink" x="0px" y="0px"
	 viewBox="0 0 64 64" style="enable-background:new 0 0 64 64;" xml:space="preserve">
<style type="text/css">
.st0{fill:#4DDCE4;}
</style>
	<path class="st0" d="M43.9,21c0.2,0.1,0.3,0.2,0.5,0.3l0.5,0.3l0,0.5c0,1.6-0.2,2.9-0.6,3.9c-0.4,0.9-0.9,1.6-1.7,2.1c-0.5,1.8-1.1,3.5-2,5
	c-1,1.6-2.3,2.9-4.1,3.6c-0.8,0.3-2.9,0.4-4.9,0.4c-1.9,0-3.9-0.2-4.7-0.6c-1.7-0.8-2.8-2.1-3.7-3.7c-0.8-1.4-1.3-3-1.8-4.7
	c-0.8-0.4-1.4-1.1-1.8-2.1c-0.4-1-0.6-2.4-0.6-4l0-0.5l0.5-0.3c0.1-0.1,0.2-0.1,0.3-0.2c-0.5-6.3-0.3-8.6,2-11.3
	c4.6-3.7,15-3.6,19.7-0.2C44.6,12.5,44.8,15.9,43.9,21z M34.3,39.3l0.1,1.4l-0.9,1.4l1.2,7.8l4.9-10.5l7.4-0.3
	c3.8,3.6,6.3,12.2,5.7,17.8H11.2c0.1-4.9,1-13.3,5.9-17.6l6.7,0.1l6.3,10.4l1.2-7.8l-0.9-1.4l0.1-1.4C32.2,39.2,32.6,39.2,34.3,39.3
	L34.3,39.3z M39.8,18.8c-3,0.6-7.4,1.1-10.8-0.9c-1.3-0.8-3.3,0.8-4.9,0.6c-0.5,1-0.9,2.1-1.1,3.2l-0.2,0.9l-1-0.1
	c-0.2,0-0.4,0-0.6,0.1c-0.1,0-0.2,0.1-0.3,0.1c0,1.1,0.2,1.9,0.4,2.6c0.2,0.6,0.6,0.9,1,1.1l0.6,0.2l0.2,0.6c0.5,1.7,1,3.4,1.7,4.7
	c0.7,1.2,1.6,2.2,2.8,2.8c0.5,0.2,2.1,0.4,3.8,0.4c1.8,0,3.6-0.1,4.2-0.3c1.3-0.5,2.3-1.4,3-2.7c0.8-1.3,1.4-3,1.9-4.9l0.1-0.5
	l0.5-0.2c0.4-0.1,0.7-0.5,1-1.1c0.3-0.6,0.4-1.5,0.4-2.5c-0.1,0-0.2-0.1-0.2-0.1c-0.2-0.1-0.4-0.1-0.5-0.1L41,22.7l-0.2-0.9
	C40.6,20.7,40.3,19.7,39.8,18.8L39.8,18.8z"/>
</svg>
