<?xml version="1.0" encoding="utf-8"?>
<!-- Generator: Adobe Illustrator 22.0.0, SVG Export Plug-In . SVG Version: 6.00 Build 0)  -->
<svg version="1.1" id="图层_1" xmlns="http://www.w3.org/2000/svg" xmlns:xlink="http://www.w3.org/1999/xlink" x="0px" y="0px"
	 viewBox="0 0 64 64" style="enable-background:new 0 0 64 64;" xml:space="preserve">
<style type="text/css">
.st0{fill:#1EABF2;}
</style>
<g>
	<path class="st0" d="M53.3,20.8L53.3,20.8L42.5,9.2c-0.5-0.5-1.2-1-2-1.4v13.8l13.4,0C53.7,21.3,53.5,21,53.3,20.8z"/>
	<path class="st0" d="M55.3,25.7L55.3,25.7l-14.8,0c-2.3,0-4.2-1.9-4.2-4.2V7H12.9c-2.3,0-4.2,1.9-4.2,4.2v41.7c0,2.3,1.9,4.2,4.2,4.2h38.2
		c2.3,0,4.2-1.9,4.2-4.2v-27C55.3,25.8,55.3,25.8,55.3,25.7z M40.5,46.6h-17c-1.2,0-2.1-0.9-2.1-2.1c0-1.2,1-2.1,2.1-2.1h17
		c1.2,0,2.1,0.9,2.1,2.1C42.6,45.7,41.7,46.6,40.5,46.6z M40.5,36.2h-17c-1.2,0-2.1-0.9-2.1-2.1c0-1.2,1-2.1,2.1-2.1h17
		c1.2,0,2.1,0.9,2.1,2.1C42.6,35.2,41.7,36.2,40.5,36.2z"/>
</g>
</svg>
