<?xml version="1.0" encoding="utf-8"?>
<!-- Generator: Adobe Illustrator 22.0.0, SVG Export Plug-In . SVG Version: 6.00 Build 0)  -->
<svg version="1.1" id="图层_1" xmlns="http://www.w3.org/2000/svg" xmlns:xlink="http://www.w3.org/1999/xlink" x="0px" y="0px"
	 viewBox="0 0 64 64" style="enable-background:new 0 0 64 64;" xml:space="preserve">
<style type="text/css">
.st0{fill:#755FD7;}
</style>
	<path class="st0" d="M55.9,51.6h-2.7V20.3c0-0.9-0.5-1.7-1.4-2.1l-13.7-7.1c-0.8-0.3-1.6-0.3-2.4,0c-0.9,0.3-1.4,1.2-1.4,5.7v38.4h-2.7V13
	c0-4.6,0-5.3-1-5.7c-0.9-0.4-1.9-0.4-2.7,0l-15.7,8.3c-0.8,0.4-1.4,1.3-1.4,2.2v33.9H8.1c-0.7,0-1,0.4-1,0.7v4c0,0.3,0.3,0.7,1,0.7
	h47.9c0.3,0,1-0.4,1-0.7v-3.9C57,51.9,56.3,51.6,55.9,51.6L55.9,51.6z M23.8,46.5c0,0.4-0.3,0.7-0.7,0.7h-3.9
	c-0.4,0-0.7-0.3-0.7-0.7v-3.3c0-0.4,0.3-0.7,0.7-0.7h3.9c0.4,0,0.7,0.3,0.7,0.7C23.9,43.2,23.8,46.5,23.8,46.5z M23.8,36.5
	c0,0.4-0.3,0.7-0.7,0.7h-3.9c-0.4,0-0.7-0.3-0.7-0.7v-3.4c0-0.4,0.3-0.7,0.7-0.7h3.9c0.4,0,0.7,0.3,0.7,0.7
	C23.9,33.1,23.8,36.5,23.8,36.5z M23.8,26.4c0,0.4-0.3,0.7-0.7,0.7h-3.9c-0.4,0-0.7-0.3-0.7-0.7V23c0-0.4,0.3-0.7,0.7-0.7h3.9
	c0.4,0,0.7,0.3,0.7,0.7C23.9,23,23.8,26.4,23.8,26.4z M46.3,46.5c0,0.4-0.3,0.7-0.7,0.7h-3.9c-0.4,0-0.7-0.3-0.7-0.7v-3.4
	c0-0.4,0.3-0.7,0.7-0.7h3.9c0.4,0,0.7,0.3,0.7,0.7V46.5L46.3,46.5z M46.3,36.4c0,0.4-0.3,0.7-0.7,0.7h-3.9c-0.4,0-0.7-0.3-0.7-0.7
	v-3.4c0-0.4,0.3-0.7,0.7-0.7h3.9c0.4,0,0.7,0.3,0.7,0.7V36.4z M46.3,26.4c0,0.4-0.3,0.7-0.7,0.7h-3.9c-0.4,0-0.7-0.3-0.7-0.7V23
	c0-0.4,0.3-0.7,0.7-0.7h3.9c0.4,0,0.7,0.3,0.7,0.7C46.3,23,46.3,26.4,46.3,26.4z"/>
</svg>
