<?xml version="1.0" encoding="utf-8"?>
<!-- Generator: Adobe Illustrator 22.0.0, SVG Export Plug-In . SVG Version: 6.00 Build 0)  -->
<svg version="1.1" id="图层_1" xmlns="http://www.w3.org/2000/svg" xmlns:xlink="http://www.w3.org/1999/xlink" x="0px" y="0px"
	 viewBox="0 0 64 64" style="enable-background:new 0 0 64 64;" xml:space="preserve">
<style type="text/css">
.st0{fill:#AED44A;}
</style>
	<path class="st0" d="M48.1,36.4c1.5,0,3.7-3.2,4.2-4.3c0.5-1,1.8-5.8-0.6-5.8h-6.7v-4.9h3.2c1.5,0,3.7-3.2,4.2-4.3c0.5-1,1.8-5.8-0.6-5.8h-6.7
	V9.5h1.9V7H16.9v2.5h1.9v1.9h-6.4c-2.4,0-1.1,4.7-0.6,5.8c0.5,1.1,2.6,4.3,4.2,4.3h2.9v4.9h-6.4c-2.4,0-1.1,4.8-0.6,5.8
	c0.5,1,2.5,4.2,4,4.2h2.9v4.9h-6.3c-2.4,0-1.1,4.8-0.6,5.8c0.5,1.1,2.6,4.3,4.2,4.3h2.9v3.8h4.5V57h16.9v-1.8h4.5v-3.8H48
	c1.5,0,3.7-3.2,4.2-4.3c0.5-1,1.8-5.8-0.6-5.8h-6.7v-4.9L48.1,36.4L48.1,36.4z M31.9,52.3c-3.2,0-5.8-2.6-5.8-5.8
	c0-3.3,2.5-5.8,5.8-5.8c3.2,0,5.8,2.7,5.8,5.8C37.7,49.7,35.1,52.3,31.9,52.3z M31.9,38.6c-3.2,0-5.8-2.6-5.8-5.8
	c0-3.3,2.5-5.8,5.8-5.8c3.2,0,5.8,2.6,5.8,5.8C37.7,35.9,35.1,38.6,31.9,38.6z M31.9,24.8c-3.2,0-5.8-2.7-5.8-5.8
	c0-3.3,2.5-5.8,5.8-5.8c3.2,0,5.8,2.7,5.8,5.8S35.1,24.8,31.9,24.8z"/>
</svg>
