<svg xmlns="http://www.w3.org/2000/svg" class="icon" viewBox="0 0 1619 1024" width="200" height="200" t="1593759424545" p-id="4660" version="1.1"><path fill="#f4ea2a" d="M 1321.84 430.584 c 0 -4.36731 0.566133 -8.08761 0.566132 -12.8593 a 417.563 417.563 0 0 0 -794.527 -179.707 a 212.947 212.947 0 0 0 -97.0513 -22.9688 A 215.777 215.777 0 0 0 218.366 394.595 a 323.504 323.504 0 0 0 93.0075 629.054 v -54.2679 a 269.479 269.479 0 0 1 -75.2148 -524.077 l 30.7329 -10.2713 l 5.33782 -31.6226 a 161.752 161.752 0 0 1 231.791 -117.27 l 49.0109 24.2628 l 23.2923 -49.1727 a 363.943 363.943 0 0 1 691.976 156.576 v 11.4035 l -1.29402 54.9958 h 55.0766 a 242.628 242.628 0 0 1 0.566133 485.257 h -16.1752 v 54.187 h 16.1752 a 296.654 296.654 0 0 0 -0.727885 -593.307 Z" p-id="4661" /><path fill="#f4ea2a" d="M 1143.35 445.708 l -329.57 -110.315 a 8.89637 8.89637 0 0 0 -4.28643 -0.727885 a 9.21988 9.21988 0 0 0 -4.36731 0.727885 L 474.177 447.245 a 14.8003 14.8003 0 0 0 -10.0286 13.6681 v 438.349 a 14.7195 14.7195 0 0 0 10.0286 13.6681 l 331.026 110.315 a 9.62426 9.62426 0 0 0 4.28643 0.727885 a 8.89637 8.89637 0 0 0 4.28643 -0.727885 l 329.57 -110.315 a 14.6386 14.6386 0 0 0 10.0286 -13.6681 V 459.376 a 14.8003 14.8003 0 0 0 -10.0286 -13.6681 Z m -333.857 -64.7009 l 241.9 80.8761 l -242.628 88.9637 l -240.526 -88.7211 l 241.253 -81.4422 Z m -299.242 111.124 l 2.83066 -0.727885 l 269.964 98.0219 v 369.846 L 510.167 867.801 V 491.889 Z m 594.682 375.67 l -272.876 91.5518 V 589.182 l 272.148 -98.7497 h 0.647009 v 377.368 Z" p-id="4662" /></svg>