<?xml version="1.0" encoding="utf-8"?>
<svg version="1.1" xmlns:xlink="http://www.w3.org/1999/xlink" width="88px" height="88px" xmlns="http://www.w3.org/2000/svg">
  <defs>
    <mask fill="white" id="clip3">
      <path d="M 59.640625 17.015625  C 54.8663194444444 14.2274305555556  49.6527777777778 12.8333333333333  44 12.8333333333333  C 38.3472222222222 12.8333333333333  33.1336805555556 14.2274305555556  28.359375 17.015625  C 23.5850694444444 19.8038194444444  19.8038194444444 23.5850694444444  17.015625 28.359375  C 14.2274305555556 33.1336805555556  12.8333333333333 38.3472222222222  12.8333333333333 44  C 12.8333333333333 49.6527777777778  14.2274305555556 54.8663194444444  17.015625 59.640625  C 19.8038194444444 64.4149305555555  23.5850694444444 68.1961805555556  28.359375 70.984375  C 33.1336805555556 73.7725694444444  38.3472222222222 75.1666666666667  44 75.1666666666667  C 49.6527777777778 75.1666666666667  54.8663194444444 73.7725694444444  59.640625 70.984375  C 64.4149305555556 68.1961805555556  68.1961805555556 64.4149305555555  70.984375 59.640625  C 73.7725694444444 54.8663194444444  75.1666666666667 49.6527777777778  75.1666666666667 44  C 75.1666666666667 38.3472222222222  73.7725694444444 33.1336805555556  70.984375 28.359375  C 68.1961805555556 23.5850694444444  64.4149305555556 19.8038194444444  59.640625 17.015625  Z M 82.0989583333333 21.9140625  C 86.0329861111111 28.6553819444444  88 36.0173611111111  88 44  C 88 51.9826388888889  86.0329861111111 59.3446180555555  82.0989583333333 66.0859375  C 78.1649305555556 72.8272569444444  72.8272569444444 78.1649305555556  66.0859375 82.0989583333333  C 59.3446180555556 86.0329861111111  51.9826388888889 88  44 88  C 36.0173611111111 88  28.6553819444444 86.0329861111111  21.9140625 82.0989583333333  C 15.1727430555556 78.1649305555556  9.83506944444445 72.8272569444444  5.90104166666667 66.0859375  C 1.96701388888889 59.3446180555555  0 51.9826388888889  0 44  C 0 36.0173611111111  1.96701388888889 28.6553819444444  5.90104166666667 21.9140625  C 9.83506944444445 15.1727430555556  15.1727430555556 9.83506944444444  21.9140625 5.90104166666666  C 28.6553819444444 1.96701388888888  36.0173611111111 0  44 0  C 51.9826388888889 0  59.3446180555556 1.96701388888888  66.0859375 5.90104166666666  C 72.8272569444444 9.83506944444444  78.1649305555556 15.1727430555556  82.0989583333333 21.9140625  Z " fill-rule="evenodd" />
    </mask>
  </defs>
  <g transform="matrix(1 0 0 1 -1409 -16 )">
    <path d="M 59.640625 17.015625  C 54.8663194444444 14.2274305555556  49.6527777777778 12.8333333333333  44 12.8333333333333  C 38.3472222222222 12.8333333333333  33.1336805555556 14.2274305555556  28.359375 17.015625  C 23.5850694444444 19.8038194444444  19.8038194444444 23.5850694444444  17.015625 28.359375  C 14.2274305555556 33.1336805555556  12.8333333333333 38.3472222222222  12.8333333333333 44  C 12.8333333333333 49.6527777777778  14.2274305555556 54.8663194444444  17.015625 59.640625  C 19.8038194444444 64.4149305555555  23.5850694444444 68.1961805555556  28.359375 70.984375  C 33.1336805555556 73.7725694444444  38.3472222222222 75.1666666666667  44 75.1666666666667  C 49.6527777777778 75.1666666666667  54.8663194444444 73.7725694444444  59.640625 70.984375  C 64.4149305555556 68.1961805555556  68.1961805555556 64.4149305555555  70.984375 59.640625  C 73.7725694444444 54.8663194444444  75.1666666666667 49.6527777777778  75.1666666666667 44  C 75.1666666666667 38.3472222222222  73.7725694444444 33.1336805555556  70.984375 28.359375  C 68.1961805555556 23.5850694444444  64.4149305555556 19.8038194444444  59.640625 17.015625  Z M 82.0989583333333 21.9140625  C 86.0329861111111 28.6553819444444  88 36.0173611111111  88 44  C 88 51.9826388888889  86.0329861111111 59.3446180555555  82.0989583333333 66.0859375  C 78.1649305555556 72.8272569444444  72.8272569444444 78.1649305555556  66.0859375 82.0989583333333  C 59.3446180555556 86.0329861111111  51.9826388888889 88  44 88  C 36.0173611111111 88  28.6553819444444 86.0329861111111  21.9140625 82.0989583333333  C 15.1727430555556 78.1649305555556  9.83506944444445 72.8272569444444  5.90104166666667 66.0859375  C 1.96701388888889 59.3446180555555  0 51.9826388888889  0 44  C 0 36.0173611111111  1.96701388888889 28.6553819444444  5.90104166666667 21.9140625  C 9.83506944444445 15.1727430555556  15.1727430555556 9.83506944444444  21.9140625 5.90104166666666  C 28.6553819444444 1.96701388888888  36.0173611111111 0  44 0  C 51.9826388888889 0  59.3446180555556 1.96701388888888  66.0859375 5.90104166666666  C 72.8272569444444 9.83506944444444  78.1649305555556 15.1727430555556  82.0989583333333 21.9140625  Z " fill-rule="nonzero" fill="#000000" stroke="none" fill-opacity="0" transform="matrix(1 0 0 1 1409 16 )" />
    <path d="M 59.640625 17.015625  C 54.8663194444444 14.2274305555556  49.6527777777778 12.8333333333333  44 12.8333333333333  C 38.3472222222222 12.8333333333333  33.1336805555556 14.2274305555556  28.359375 17.015625  C 23.5850694444444 19.8038194444444  19.8038194444444 23.5850694444444  17.015625 28.359375  C 14.2274305555556 33.1336805555556  12.8333333333333 38.3472222222222  12.8333333333333 44  C 12.8333333333333 49.6527777777778  14.2274305555556 54.8663194444444  17.015625 59.640625  C 19.8038194444444 64.4149305555555  23.5850694444444 68.1961805555556  28.359375 70.984375  C 33.1336805555556 73.7725694444444  38.3472222222222 75.1666666666667  44 75.1666666666667  C 49.6527777777778 75.1666666666667  54.8663194444444 73.7725694444444  59.640625 70.984375  C 64.4149305555556 68.1961805555556  68.1961805555556 64.4149305555555  70.984375 59.640625  C 73.7725694444444 54.8663194444444  75.1666666666667 49.6527777777778  75.1666666666667 44  C 75.1666666666667 38.3472222222222  73.7725694444444 33.1336805555556  70.984375 28.359375  C 68.1961805555556 23.5850694444444  64.4149305555556 19.8038194444444  59.640625 17.015625  Z " stroke-width="2" stroke="#82ff00" fill="none" transform="matrix(1 0 0 1 1409 16 )" mask="url(#clip3)" />
    <path d="M 82.0989583333333 21.9140625  C 86.0329861111111 28.6553819444444  88 36.0173611111111  88 44  C 88 51.9826388888889  86.0329861111111 59.3446180555555  82.0989583333333 66.0859375  C 78.1649305555556 72.8272569444444  72.8272569444444 78.1649305555556  66.0859375 82.0989583333333  C 59.3446180555556 86.0329861111111  51.9826388888889 88  44 88  C 36.0173611111111 88  28.6553819444444 86.0329861111111  21.9140625 82.0989583333333  C 15.1727430555556 78.1649305555556  9.83506944444445 72.8272569444444  5.90104166666667 66.0859375  C 1.96701388888889 59.3446180555555  0 51.9826388888889  0 44  C 0 36.0173611111111  1.96701388888889 28.6553819444444  5.90104166666667 21.9140625  C 9.83506944444445 15.1727430555556  15.1727430555556 9.83506944444444  21.9140625 5.90104166666666  C 28.6553819444444 1.96701388888888  36.0173611111111 0  44 0  C 51.9826388888889 0  59.3446180555556 1.96701388888888  66.0859375 5.90104166666666  C 72.8272569444444 9.83506944444444  78.1649305555556 15.1727430555556  82.0989583333333 21.9140625  Z " stroke-width="2" stroke="#82ff00" fill="none" transform="matrix(1 0 0 1 1409 16 )" mask="url(#clip3)" />
  </g>
</svg>