<?xml version="1.0" encoding="utf-8"?>
<svg version="1.1" xmlns:xlink="http://www.w3.org/1999/xlink" width="15px" height="20px" xmlns="http://www.w3.org/2000/svg">
  <g transform="matrix(1 0 0 1 -68 -277 )">
    <path d="M 8.603515625 18.8828125  C 8.90950520833333 18.6380208333333  9.0625 18.34375  9.0625 18  C 9.0625 17.65625  8.90950520833333 17.3619791666667  8.603515625 17.1171875  C 8.29752604166667 16.8723958333333  7.9296875 16.75  7.5 16.75  C 7.0703125 16.75  6.70247395833333 16.8723958333333  6.396484375 17.1171875  C 6.09049479166667 17.3619791666667  5.9375 17.65625  5.9375 18  C 5.9375 18.34375  6.09049479166667 18.6380208333333  6.396484375 18.8828125  C 6.70247395833333 19.1276041666667  7.0703125 19.25  7.5 19.25  C 7.9296875 19.25  8.29752604166667 19.1276041666667  8.603515625 18.8828125  Z M 12.939453125 15.8515625  C 13.0631510416667 15.7526041666667  13.125 15.6354166666667  13 15.5  L 13 4.5  C 13.125 4.36458333333333  13.0631510416667 4.24739583333333  12.939453125 4.1484375  C 12.8157552083333 4.04947916666667  12.6692708333333 4  12.5 4  L 2.5 4  C 2.33072916666667 4  2.18424479166667 4.04947916666667  2.060546875 4.1484375  C 1.93684895833333 4.24739583333333  1.875 4.36458333333333  2 4.5  L 2 15.5  C 1.875 15.6354166666667  1.93684895833333 15.7526041666667  2.060546875 15.8515625  C 2.18424479166667 15.9505208333333  2.33072916666667 16  2.5 16  L 12.5 16  C 12.6692708333333 16  12.8157552083333 15.9505208333333  12.939453125 15.8515625  Z M 9.0625 2.5  C 9.27083333333334 2.5  9.375 2.41666666666666  9.375 2.25  C 9.375 2.08333333333333  9.27083333333334 2  9.0625 2  L 5.9375 2  C 5.72916666666667 2  5.625 2.08333333333333  5.625 2.25  C 5.625 2.41666666666666  5.72916666666667 2.5  5.9375 2.5  L 9.0625 2.5  Z M 14.2578125 0.59375  C 14.7526041666667 0.989583333333333  15 1.45833333333333  15 2  L 15 18  C 15 18.5416666666667  14.7526041666667 19.0104166666667  14.2578125 19.40625  C 13.7630208333333 19.8020833333333  13.1770833333333 20  12.5 20  L 2.5 20  C 1.82291666666667 20  1.23697916666667 19.8020833333333  0.7421875 19.40625  C 0.247395833333333 19.0104166666667  0 18.5416666666667  0 18  L 0 2  C 0 1.45833333333333  0.247395833333333 0.989583333333333  0.7421875 0.59375  C 1.23697916666667 0.197916666666664  1.82291666666667 0  2.5 0  L 12.5 0  C 13.1770833333333 0  13.7630208333333 0.197916666666664  14.2578125 0.59375  Z " fill-rule="nonzero" fill="#333333" stroke="none" transform="matrix(1 0 0 1 68 277 )" />
  </g>
</svg>