<?xml version="1.0" encoding="utf-8"?>
<svg version="1.1" xmlns:xlink="http://www.w3.org/1999/xlink" width="20px" height="13px" xmlns="http://www.w3.org/2000/svg">
  <g transform="matrix(1 0 0 1 -67 -350 )">
    <path d="M 18.8839285714286 4.99502840909091  C 19.3080357142857 4.75497159090909  19.6800595238095 4.48721590909091  20 4.19176136363636  L 20 11.5227272727273  C 20 11.9289772727273  19.8251488095238 12.2767518939394  19.4754464285714 12.5660511363636  C 19.1257440476191 12.8553503787879  18.7053571428571 13  18.2142857142857 13  L 1.78571428571429 13  C 1.29464285714286 13  0.874255952380952 12.8553503787879  0.524553571428571 12.5660511363636  C 0.17485119047619 12.2767518939394  0 11.9289772727273  0 11.5227272727273  L 0 4.19176136363636  C 0.327380952380952 4.49337121212121  0.703125 4.76112689393939  1.12723214285714 4.99502840909091  C 3.82068452380952 6.50923295454546  5.66964285714286 7.57102272727273  6.67410714285714 8.18039772727273  C 7.09821428571429 8.43892045454546  7.44233630952381 8.64050662878788  7.70647321428571 8.78515625  C 7.97061011904762 8.92980587121212  8.32217261904762 9.07753314393939  8.76116071428571 9.22833806818182  C 9.20014880952381 9.37914299242424  9.609375 9.45454545454546  9.98883928571429 9.45454545454546  L 10 9.45454545454546  L 10.0111607142857 9.45454545454546  C 10.390625 9.45454545454546  10.7998511904762 9.37914299242424  11.2388392857143 9.22833806818182  C 11.6778273809524 9.07753314393939  12.0293898809524 8.92980587121212  12.2935267857143 8.78515625  C 12.5576636904762 8.64050662878788  12.9017857142857 8.43892045454546  13.3258928571429 8.18039772727273  C 14.5907738095238 7.42329545454546  16.4434523809524 6.36150568181818  18.8839285714286 4.99502840909091  Z M 19.4698660714286 0.433948863636363  C 19.8232886904762 0.723248106060605  20 1.07102272727273  20 1.47727272727273  C 20 1.96354166666666  19.8177083333333 2.42826704545455  19.453125 2.87144886363636  C 19.0885416666667 3.31463068181818  18.6346726190476 3.69318181818182  18.0915178571429 4.00710227272727  C 15.2938988095238 5.61363636363636  13.5528273809524 6.61387310606061  12.8683035714286 7.0078125  C 12.7938988095238 7.05089962121212  12.6357886904762 7.14476799242424  12.3939732142857 7.28941761363636  C 12.1521577380952 7.43406723484848  11.9512648809524 7.55101799242424  11.7912946428571 7.64026988636364  C 11.6313244047619 7.72952178030303  11.4378720238095 7.82954545454546  11.2109375 7.94034090909091  C 10.9840029761905 8.05113636363637  10.7700892857143 8.13423295454546  10.5691964285714 8.18963068181818  C 10.3683035714286 8.24502840909091  10.1822916666667 8.27272727272727  10.0111607142857 8.27272727272727  L 10 8.27272727272727  L 9.98883928571429 8.27272727272727  C 9.81770833333333 8.27272727272727  9.63169642857143 8.24502840909091  9.43080357142857 8.18963068181818  C 9.22991071428571 8.13423295454546  9.01599702380952 8.05113636363637  8.7890625 7.94034090909091  C 8.56212797619048 7.82954545454546  8.36867559523809 7.72952178030303  8.20870535714286 7.64026988636364  C 8.04873511904762 7.55101799242424  7.84784226190476 7.43406723484848  7.60602678571429 7.28941761363636  C 7.36421130952381 7.14476799242424  7.20610119047619 7.05089962121212  7.13169642857143 7.0078125  C 6.45461309523809 6.61387310606061  5.47991071428571 6.05220170454546  4.20758928571429 5.32279829545455  C 2.93526785714286 4.59339488636364  2.17261904761905 4.15482954545454  1.91964285714286 4.00710227272727  C 1.45833333333333 3.74857954545454  1.02306547619048 3.39311079545455  0.613839285714286 2.94069602272727  C 0.204613095238095 2.48828125  0 2.06818181818182  0 1.68039772727273  C 0 1.20028409090909  0.154389880952381 0.800189393939392  0.463169642857143 0.480113636363637  C 0.771949404761905 0.160037878787878  1.21279761904762 0  1.78571428571429 0  L 18.2142857142857 0  C 18.6979166666667 0  19.116443452381 0.14464962121212  19.4698660714286 0.433948863636363  Z " fill-rule="nonzero" fill="#333333" stroke="none" transform="matrix(1 0 0 1 67 350 )" />
  </g>
</svg>