<?xml version="1.0" encoding="utf-8"?>
<svg version="1.1" xmlns:xlink="http://www.w3.org/1999/xlink" width="160px" height="160px" xmlns="http://www.w3.org/2000/svg">
  <defs>
    <filter x="49px" y="538px" width="160px" height="160px" filterUnits="userSpaceOnUse" id="filter101">
      <feOffset dx="1" dy="1" in="SourceAlpha" result="shadowOffsetInner" />
      <feGaussianBlur stdDeviation="2.5" in="shadowOffsetInner" result="shadowGaussian" />
      <feComposite in2="shadowGaussian" operator="atop" in="SourceAlpha" result="shadowComposite" />
      <feColorMatrix type="matrix" values="0 0 0 0 0  0 0 0 0 0  0 0 0 0 0  0 0 0 0.698039215686274 0  " in="shadowComposite" />
    </filter>
    <g id="widget102">
      <path d="M 128 542  C 170 542  203 575  203 617  C 203 659  170 692  128 692  C 86 692  53 659  53 617  C 53 575  86 542  128 542  Z " fill-rule="nonzero" fill="#009dd9" stroke="none" />
      <path d="M 128 542.5  C 169.72 542.5  202.5 575.28  202.5 617  C 202.5 658.72  169.72 691.5  128 691.5  C 86.28 691.5  53.5 658.72  53.5 617  C 53.5 575.28  86.28 542.5  128 542.5  Z " stroke-width="1" stroke="#ffffff" fill="none" />
    </g>
  </defs>
  <g transform="matrix(1 0 0 1 -49 -538 )">
    <use xlink:href="#widget102" filter="url(#filter101)" />
    <use xlink:href="#widget102" />
  </g>
</svg>