<?xml version="1.0" encoding="utf-8"?>
<svg version="1.1" xmlns:xlink="http://www.w3.org/1999/xlink" width="233px" height="123px" xmlns="http://www.w3.org/2000/svg">
  <g transform="matrix(1 0 0 1 -1030 -583 )">
    <path d="M 228.366477272727 47.1732954545455  C 231.455492424242 48.8039772727273  233 50.7840909090909  233 53.1136363636364  L 233 69.8863636363636  C 233 72.2159090909091  231.455492424242 74.1960227272727  228.366477272727 75.8267045454545  C 225.277462121212 77.4573863636364  221.526515151515 78.2727272727273  217.113636363636 78  L 148 78  L 148 114.613636363636  C 148.272727272727 116.943181818182  146.72821969697 118.923295454545  143.639204545455 120.553977272727  C 140.550189393939 122.184659090909  136.799242424242 123  132.386363636364 123  L 100.613636363636 123  C 96.2007575757576 123  92.4498106060606 122.184659090909  89.3607954545455 120.553977272727  C 86.2717803030303 118.923295454545  84.7272727272727 116.943181818182  85 114.613636363636  L 85 78  L 15.8863636363636 78  C 11.4734848484848 78.2727272727273  7.72253787878788 77.4573863636364  4.63352272727273 75.8267045454545  C 1.54450757575758 74.1960227272727  0 72.2159090909091  0 69.8863636363636  L 0 53.1136363636364  C 0 50.7840909090909  1.54450757575758 48.8039772727273  4.63352272727273 47.1732954545455  C 7.72253787878788 45.5426136363636  11.4734848484848 44.7272727272727  15.8863636363636 45  L 85 45  L 85 8.38636363636364  C 84.7272727272727 6.05681818181818  86.2717803030303 4.07670454545454  89.3607954545455 2.44602272727273  C 92.4498106060606 0.815340909090905  96.2007575757576 0  100.613636363636 0  L 132.386363636364 0  C 136.799242424242 0  140.550189393939 0.815340909090905  143.639204545455 2.44602272727273  C 146.72821969697 4.07670454545454  148.272727272727 6.05681818181818  148 8.38636363636364  L 148 45  L 217.113636363636 45  C 221.526515151515 44.7272727272727  225.277462121212 45.5426136363636  228.366477272727 47.1732954545455  Z " fill-rule="nonzero" fill="#ffffff" stroke="none" fill-opacity="0.2" transform="matrix(1 0 0 1 1030 583 )" />
  </g>
</svg>