<?xml version="1.0" encoding="utf-8"?>
<svg version="1.1" xmlns:xlink="http://www.w3.org/1999/xlink" width="70px" height="90px" xmlns="http://www.w3.org/2000/svg">
  <defs>
    <filter x="1539px" y="110px" width="70px" height="90px" filterUnits="userSpaceOnUse" id="filter10">
      <feOffset dx="1" dy="1" in="SourceAlpha" result="shadowOffsetInner" />
      <feGaussianBlur stdDeviation="2.5" in="shadowOffsetInner" result="shadowGaussian" />
      <feComposite in2="shadowGaussian" operator="atop" in="SourceAlpha" result="shadowComposite" />
      <feColorMatrix type="matrix" values="0 0 0 0 0  0 0 0 0 0  0 0 0 0 0  0 0 0 0.698039215686274 0  " in="shadowComposite" />
    </filter>
    <g id="widget11">
      <path d="M 1573 193.036928468354  C 1561.2 173.40734059591  1543.5 161.629587872444  1543.5 142  C 1543.5 131.785714285714  1549.4 114.5  1573 114.5  C 1596.6 114.5  1602.5 131.785714285714  1602.5 142  C 1602.5 161.629587872444  1584.8 173.40734059591  1573 193.036928468354  Z " fill-rule="nonzero" fill="#82ff00" stroke="none" />
      <path d="M 1573 194  C 1561 174  1543 162  1543 142  C 1543 131.6  1549 114  1573 114  C 1597 114  1603 131.6  1603 142  C 1603 162  1585 174  1573 194  Z M 1573 192.073856936707  C 1584.6 172.81468119182  1602 161.259175744887  1602 142  C 1602 131.971428571429  1596.2 115  1573 115  C 1549.8 115  1544 131.971428571429  1544 142  C 1544 161.259175744887  1561.4 172.81468119182  1573 192.073856936707  Z " fill-rule="nonzero" fill="#ffffff" stroke="none" />
    </g>
  </defs>
  <g transform="matrix(1 0 0 1 -1539 -110 )">
    <use xlink:href="#widget11" filter="url(#filter10)" />
    <use xlink:href="#widget11" />
  </g>
</svg>