<?xml version="1.0" encoding="utf-8"?>
<svg version="1.1" xmlns:xlink="http://www.w3.org/1999/xlink" width="160px" height="160px" xmlns="http://www.w3.org/2000/svg">
  <defs>
    <filter x="695px" y="526px" width="160px" height="160px" filterUnits="userSpaceOnUse" id="filter103">
      <feOffset dx="1" dy="1" in="SourceAlpha" result="shadowOffsetInner" />
      <feGaussianBlur stdDeviation="2.5" in="shadowOffsetInner" result="shadowGaussian" />
      <feComposite in2="shadowGaussian" operator="atop" in="SourceAlpha" result="shadowComposite" />
      <feColorMatrix type="matrix" values="0 0 0 0 0  0 0 0 0 0  0 0 0 0 0  0 0 0 0.698039215686274 0  " in="shadowComposite" />
    </filter>
    <g id="widget104">
      <path d="M 774 530  C 816 530  849 563  849 605  C 849 647  816 680  774 680  C 732 680  699 647  699 605  C 699 563  732 530  774 530  Z " fill-rule="nonzero" fill="#70b603" stroke="none" />
      <path d="M 774 530.5  C 815.72 530.5  848.5 563.28  848.5 605  C 848.5 646.72  815.72 679.5  774 679.5  C 732.28 679.5  699.5 646.72  699.5 605  C 699.5 563.28  732.28 530.5  774 530.5  Z " stroke-width="1" stroke="#ffffff" fill="none" />
    </g>
  </defs>
  <g transform="matrix(1 0 0 1 -695 -526 )">
    <use xlink:href="#widget104" filter="url(#filter103)" />
    <use xlink:href="#widget104" />
  </g>
</svg>