<?xml version="1.0" encoding="utf-8"?>
<svg version="1.1" xmlns:xlink="http://www.w3.org/1999/xlink" width="160px" height="160px" xmlns="http://www.w3.org/2000/svg">
  <defs>
    <filter x="1330px" y="526px" width="160px" height="160px" filterUnits="userSpaceOnUse" id="filter105">
      <feOffset dx="1" dy="1" in="SourceAlpha" result="shadowOffsetInner" />
      <feGaussianBlur stdDeviation="2.5" in="shadowOffsetInner" result="shadowGaussian" />
      <feComposite in2="shadowGaussian" operator="atop" in="SourceAlpha" result="shadowComposite" />
      <feColorMatrix type="matrix" values="0 0 0 0 0  0 0 0 0 0  0 0 0 0 0  0 0 0 0.698039215686274 0  " in="shadowComposite" />
    </filter>
    <g id="widget106">
      <path d="M 1409 530  C 1451 530  1484 563  1484 605  C 1484 647  1451 680  1409 680  C 1367 680  1334 647  1334 605  C 1334 563  1367 530  1409 530  Z " fill-rule="nonzero" fill="#f59a23" stroke="none" />
      <path d="M 1409 530.5  C 1450.72 530.5  1483.5 563.28  1483.5 605  C 1483.5 646.72  1450.72 679.5  1409 679.5  C 1367.28 679.5  1334.5 646.72  1334.5 605  C 1334.5 563.28  1367.28 530.5  1409 530.5  Z " stroke-width="1" stroke="#ffffff" fill="none" />
    </g>
  </defs>
  <g transform="matrix(1 0 0 1 -1330 -526 )">
    <use xlink:href="#widget106" filter="url(#filter105)" />
    <use xlink:href="#widget106" />
  </g>
</svg>