<?xml version="1.0" encoding="utf-8"?>
<svg version="1.1" xmlns:xlink="http://www.w3.org/1999/xlink" width="166px" height="166px" xmlns="http://www.w3.org/2000/svg">
  <defs>
    <linearGradient gradientUnits="userSpaceOnUse" x1="83" y1="0" x2="83" y2="166" id="LinearGradient145">
      <stop id="Stop146" stop-color="#ffffff" offset="0" />
      <stop id="Stop147" stop-color="#ffffff" stop-opacity="0" offset="0.75" />
      <stop id="Stop148" stop-color="#ffffff" stop-opacity="0" offset="1" />
    </linearGradient>
  </defs>
  <g transform="matrix(1 0 0 1 -26 -98 )">
    <path d="M 112.50390625 32.09765625  C 103.497829861111 26.8381076388889  93.6631944444445 24.2083333333333  83 24.2083333333333  C 72.3368055555556 24.2083333333333  62.5021701388889 26.8381076388889  53.49609375 32.09765625  C 44.4900173611111 37.3572048611111  37.3572048611111 44.4900173611111  32.09765625 53.49609375  C 26.8381076388889 62.5021701388889  24.2083333333333 72.3368055555555  24.2083333333333 83  C 24.2083333333333 93.6631944444445  26.8381076388889 103.497829861111  32.09765625 112.50390625  C 37.3572048611111 121.509982638889  44.4900173611111 128.642795138889  53.49609375 133.90234375  C 62.5021701388889 139.161892361111  72.3368055555556 141.791666666667  83 141.791666666667  C 93.6631944444445 141.791666666667  103.497829861111 139.161892361111  112.50390625 133.90234375  C 121.509982638889 128.642795138889  128.642795138889 121.509982638889  133.90234375 112.50390625  C 139.161892361111 103.497829861111  141.791666666667 93.6631944444445  141.791666666667 83  C 141.791666666667 72.3368055555555  139.161892361111 62.5021701388889  133.90234375 53.49609375  C 128.642795138889 44.4900173611111  121.509982638889 37.3572048611111  112.50390625 32.09765625  Z M 154.868489583333 41.337890625  C 162.289496527778 54.0544704861111  166 67.9418402777778  166 83  C 166 98.0581597222222  162.289496527778 111.945529513889  154.868489583333 124.662109375  C 147.447482638889 137.378689236111  137.378689236111 147.447482638889  124.662109375 154.868489583333  C 111.945529513889 162.289496527778  98.0581597222222 166  83 166  C 67.9418402777778 166  54.0544704861111 162.289496527778  41.337890625 154.868489583333  C 28.6213107638889 147.447482638889  18.5525173611111 137.378689236111  11.1315104166667 124.662109375  C 3.71050347222222 111.945529513889  0 98.0581597222222  0 83  C 0 67.9418402777778  3.71050347222222 54.0544704861111  11.1315104166667 41.337890625  C 18.5525173611111 28.6213107638889  28.6213107638889 18.5525173611111  41.337890625 11.1315104166667  C 54.0544704861111 3.71050347222221  67.9418402777778 0  83 0  C 98.0581597222222 0  111.945529513889 3.71050347222221  124.662109375 11.1315104166667  C 137.378689236111 18.5525173611111  147.447482638889 28.6213107638889  154.868489583333 41.337890625  Z " fill-rule="nonzero" fill="url(#LinearGradient145)" stroke="none" transform="matrix(1 0 0 1 26 98 )" />
  </g>
</svg>