<?xml version="1.0" encoding="utf-8"?>
<svg version="1.1" xmlns:xlink="http://www.w3.org/1999/xlink" width="150px" height="85px" xmlns="http://www.w3.org/2000/svg">
  <g transform="matrix(1 0 0 1 -1172 -118 )">
    <path d="M 1172 118  L 1322 118  L 1322 203  L 1172 203  L 1172 118  " fill-rule="nonzero" fill="#cccccc" stroke="none" />
    <path d="M 1178 124  L 1316 124  L 1316 197  L 1178 197  L 1178 124  " fill-rule="nonzero" fill="#ffffff" stroke="none" />
    <path d="M 1256.375 143.5  C 1252.805 143.5  1250 140.695  1250 137.125  C 1250 133.555  1252.805 130.75  1256.375 130.75  C 1259.945 130.75  1262.75 133.555  1262.75 137.125  C 1262.75 140.695  1259.945 143.5  1256.375 143.5  " fill-rule="nonzero" fill="#cccccc" stroke="none" />
    <path d="M 1180 195  L 1180 157.05  L 1213.5 139.8  L 1260.4 171.54  L 1287.2 150.15  L 1314 171.54  L 1314 195  L 1180 195  " fill-rule="nonzero" fill="#169bd5" stroke="none" />
  </g>
</svg>