<?xml version="1.0" encoding="utf-8"?>
<svg version="1.1" xmlns:xlink="http://www.w3.org/1999/xlink" width="100px" height="100px" xmlns="http://www.w3.org/2000/svg">
  <g transform="matrix(1 0 0 1 -403 -167 )">
    <path d="M 98.0113636363636 38.3522727272727  C 99.3371212121212 39.6780303030303  100 41.2878787878788  100 43.1818181818182  L 100 56.8181818181818  C 100 58.7121212121212  99.3371212121212 60.3219696969697  98.0113636363636 61.6477272727273  C 96.6856060606061 62.9734848484848  95.0757575757576 63.6363636363636  93.1818181818182 63  L 63 63  L 63 93.1818181818182  C 63.6363636363636 95.0757575757576  62.9734848484849 96.6856060606061  61.6477272727273 98.0113636363636  C 60.3219696969697 99.3371212121212  58.7121212121212 100  56.8181818181818 100  L 43.1818181818182 100  C 41.2878787878788 100  39.6780303030303 99.3371212121212  38.3522727272727 98.0113636363636  C 37.0265151515152 96.6856060606061  36.3636363636364 95.0757575757576  37 93.1818181818182  L 37 63  L 6.81818181818182 63  C 4.92424242424242 63.6363636363636  3.31439393939394 62.9734848484848  1.98863636363636 61.6477272727273  C 0.662878787878788 60.3219696969697  0 58.7121212121212  0 56.8181818181818  L 0 43.1818181818182  C 0 41.2878787878788  0.662878787878788 39.6780303030303  1.98863636363636 38.3522727272727  C 3.31439393939394 37.0265151515151  4.92424242424242 36.3636363636364  6.81818181818182 37  L 37 37  L 37 6.81818181818182  C 36.3636363636364 4.92424242424242  37.0265151515152 3.31439393939393  38.3522727272727 1.98863636363636  C 39.6780303030303 0.662878787878785  41.2878787878788 0  43.1818181818182 0  L 56.8181818181818 0  C 58.7121212121212 0  60.3219696969697 0.662878787878785  61.6477272727273 1.98863636363636  C 62.9734848484849 3.31439393939393  63.6363636363636 4.92424242424242  63 6.81818181818182  L 63 37  L 93.1818181818182 37  C 95.0757575757576 36.3636363636364  96.6856060606061 37.0265151515151  98.0113636363636 38.3522727272727  Z " fill-rule="nonzero" fill="#000000" stroke="none" fill-opacity="0.2" transform="matrix(1 0 0 1 403 167 )" />
  </g>
</svg>