<svg xmlns="http://www.w3.org/2000/svg" class="icon" viewBox="0 0 1024 1024" width="200" height="200" t="1597050811511" p-id="3350" version="1.1"><path fill="#ffffff" d="M 503.6 329.7 V 229.6 c 0 -26 -31.5 -39.1 -49.9 -20.7 L 265.2 397.2 c -11.4 11.4 -11.4 29.9 0 41.4 L 453.6 627 c 18.4 18.5 49.9 5.4 49.9 -20.7 V 498.4 c 66.9 -0.2 189 -7.5 189 158.5 c 0 82.2 -64.6 150.9 -150.4 166.8 C 680 806.7 769 659.4 769 571.8 c 0.1 -203.7 -215.3 -241.1 -265.4 -242.1 Z m 0 0" p-id="3351" /><path fill="#ffffff" d="M 512.2 1024 c -69.1 0 -136.2 -13.5 -199.3 -40.2 C 252 958 197.2 921.1 150.1 874.1 c -47 -47 -84 -101.7 -109.7 -162.8 C 13.7 648.2 0.2 581.1 0.2 512 c 0 -69.1 13.5 -136.2 40.2 -199.3 c 25.8 -60.9 62.7 -115.7 109.7 -162.8 c 47 -47 101.7 -84 162.8 -109.7 C 376 13.6 443.1 0 512.2 0 c 69.1 0 136.2 13.5 199.3 40.2 c 61 25.8 115.7 62.7 162.8 109.8 c 47 47 84 101.7 109.7 162.8 c 26.7 63.1 40.2 130.2 40.2 199.3 c 0 69.1 -13.5 136.2 -40.2 199.3 c -25.8 60.9 -62.7 115.7 -109.7 162.8 c -47 47 -101.7 84 -162.8 109.7 c -63.1 26.5 -130.2 40.1 -199.3 40.1 Z m 0 -950.7 C 395 73.3 284.9 118.9 202 201.9 C 119.1 284.7 73.5 394.9 73.5 512 c 0 117.2 45.6 227.2 128.5 310.2 c 82.8 82.8 193 128.5 310.2 128.5 c 117.2 0 227.4 -45.7 310.2 -128.5 s 128.5 -193 128.5 -310.2 c 0 -117.2 -45.6 -227.4 -128.5 -310.2 c -82.8 -82.9 -193 -128.5 -310.2 -128.5 Z m 0 0" p-id="3352" /></svg>