<?xml version="1.0" encoding="utf-8"?>
<svg version="1.1" xmlns:xlink="http://www.w3.org/1999/xlink" width="22px" height="25px" xmlns="http://www.w3.org/2000/svg">
  <g transform="matrix(1 0 0 1 -1389 -175 )">
    <path d="M 16.5572916666667 0.948660714285715  L 21.0260416666667 5.30133928571428  C 21.2934027777778 5.56175595238095  21.5225694444444 5.91517857142857  21.7135416666667 6.36160714285714  C 21.9045138888889 6.80803571428572  22 7.2172619047619  22 7.58928571428572  L 22 23.6607142857143  C 22 24.0327380952381  21.8663194444444 24.3489583333333  21.5989583333333 24.609375  C 21.3315972222222 24.8697916666667  21.0069444444444 25  20.625 25  L 1.375 25  C 0.993055555555556 25  0.668402777777778 24.8697916666667  0.401041666666667 24.609375  C 0.133680555555556 24.3489583333333  0 24.0327380952381  0 23.6607142857143  L 0 1.33928571428572  C 0 0.967261904761904  0.133680555555556 0.651041666666666  0.401041666666667 0.390625  C 0.668402777777778 0.130208333333334  0.993055555555556 0  1.375 0  L 14.2083333333333 0  C 14.5902777777778 0  15.0104166666667 0.0930059523809534  15.46875 0.279017857142858  C 15.9270833333333 0.465029761904762  16.2899305555556 0.688244047619047  16.5572916666667 0.948660714285715  Z M 15.25390625 2.20424107142857  C 15.1393229166667 2.09263392857143  14.9435763888889 1.99032738095238  14.6666666666667 1.89732142857143  L 14.6666666666667 7.14285714285714  L 20.0520833333333 7.14285714285714  C 19.9565972222222 6.87313988095238  19.8515625 6.68247767857143  19.7369791666667 6.57087053571428  L 15.25390625 2.20424107142857  Z M 2 23  L 20 23  L 20 8.92857142857143  L 14.2083333333333 8.92857142857143  C 13.8263888888889 8.92857142857143  13.5017361111111 8.79836309523809  13.234375 8.53794642857143  C 12.9670138888889 8.27752976190476  12.8333333333333 7.96130952380952  12.8333333333333 7.58928571428572  L 12.8333333333333 2  L 2 2  L 2 23  Z M 5.5 12.0535714285714  L 5.5 11.1607142857143  C 5.5 11.030505952381  5.54296875 10.9235491071429  5.62890625 10.83984375  C 5.71484375 10.7561383928571  5.82465277777778 10.7142857142857  5.95833333333333 11  L 16.0416666666667 11  C 16.1753472222222 10.7142857142857  16.28515625 10.7561383928571  16.37109375 10.83984375  C 16.45703125 10.9235491071429  16.5 11.030505952381  16.5 11.1607142857143  L 16.5 12.0535714285714  C 16.5 12.1837797619048  16.45703125 12.2907366071429  16.37109375 12.3744419642857  C 16.28515625 12.4581473214286  16.1753472222222 12.5  16.0416666666667 12.5  L 5.95833333333333 12.5  C 5.82465277777778 12.5  5.71484375 12.4581473214286  5.62890625 12.3744419642857  C 5.54296875 12.2907366071429  5.5 12.1837797619048  5.5 12.0535714285714  Z M 5.95833333333333 14  L 16.0416666666667 14  C 16.1753472222222 14.2857142857143  16.28515625 14.3275669642857  16.37109375 14.4112723214286  C 16.45703125 14.4949776785714  16.5 14.6019345238095  16.5 14.7321428571429  L 16.5 15.625  C 16.5 15.7552083333333  16.45703125 15.8621651785714  16.37109375 15.9458705357143  C 16.28515625 16.0295758928571  16.1753472222222 16.0714285714286  16.0416666666667 16  L 5.95833333333333 16  C 5.82465277777778 16.0714285714286  5.71484375 16.0295758928571  5.62890625 15.9458705357143  C 5.54296875 15.8621651785714  5.5 15.7552083333333  5.5 15.625  L 5.5 14.7321428571429  C 5.5 14.6019345238095  5.54296875 14.4949776785714  5.62890625 14.4112723214286  C 5.71484375 14.3275669642857  5.82465277777778 14.2857142857143  5.95833333333333 14  Z M 5.95833333333333 17.8571428571429  L 16.0416666666667 17.8571428571429  C 16.1753472222222 17.8571428571429  16.28515625 17.8989955357143  16.37109375 17.9827008928571  C 16.45703125 18.06640625  16.5 18.1733630952381  16.5 18.3035714285714  L 16.5 19.1964285714286  C 16.5 19.3266369047619  16.45703125 19.43359375  16.37109375 19.5172991071429  C 16.28515625 19.6010044642857  16.1753472222222 19.6428571428571  16.0416666666667 19.6428571428571  L 5.95833333333333 19.6428571428571  C 5.82465277777778 19.6428571428571  5.71484375 19.6010044642857  5.62890625 19.5172991071429  C 5.54296875 19.43359375  5.5 19.3266369047619  5.5 19.1964285714286  L 5.5 18.3035714285714  C 5.5 18.1733630952381  5.54296875 18.06640625  5.62890625 17.9827008928571  C 5.71484375 17.8989955357143  5.82465277777778 17.8571428571429  5.95833333333333 17.8571428571429  Z " fill-rule="nonzero" fill="#ffffff" stroke="none" transform="matrix(1 0 0 1 1389 175 )" />
  </g>
</svg>