<?xml version="1.0" encoding="utf-8"?>
<svg version="1.1" xmlns:xlink="http://www.w3.org/1999/xlink" width="150px" height="150px" xmlns="http://www.w3.org/2000/svg">
  <g transform="matrix(1 0 0 1 -1082 -415 )">
    <path d="M 147.017045454545 57.5284090909091  C 149.005681818182 59.5170454545454  150 61.9318181818182  150 64.7727272727273  L 150 85.2272727272727  C 150 88.0681818181818  149.005681818182 90.4829545454545  147.017045454545 92.4715909090909  C 145.028409090909 94.4602272727273  142.613636363636 95.4545454545455  139.772727272727 95  L 95 95  L 95 139.772727272727  C 95.4545454545455 142.613636363636  94.4602272727273 145.028409090909  92.4715909090909 147.017045454545  C 90.4829545454546 149.005681818182  88.0681818181818 150  85.2272727272727 150  L 64.7727272727273 150  C 61.9318181818182 150  59.5170454545455 149.005681818182  57.5284090909091 147.017045454545  C 55.5397727272727 145.028409090909  54.5454545454545 142.613636363636  55 139.772727272727  L 55 95  L 10.2272727272727 95  C 7.38636363636364 95.4545454545455  4.97159090909091 94.4602272727273  2.98295454545455 92.4715909090909  C 0.994318181818182 90.4829545454545  0 88.0681818181818  0 85.2272727272727  L 0 64.7727272727273  C 0 61.9318181818182  0.994318181818182 59.5170454545454  2.98295454545455 57.5284090909091  C 4.97159090909091 55.5397727272727  7.38636363636364 54.5454545454545  10.2272727272727 55  L 55 55  L 55 10.2272727272727  C 54.5454545454545 7.38636363636363  55.5397727272727 4.9715909090909  57.5284090909091 2.98295454545455  C 59.5170454545455 0.994318181818177  61.9318181818182 0  64.7727272727273 0  L 85.2272727272727 0  C 88.0681818181818 0  90.4829545454546 0.994318181818177  92.4715909090909 2.98295454545455  C 94.4602272727273 4.9715909090909  95.4545454545455 7.38636363636363  95 10.2272727272727  L 95 55  L 139.772727272727 55  C 142.613636363636 54.5454545454545  145.028409090909 55.5397727272727  147.017045454545 57.5284090909091  Z " fill-rule="nonzero" fill="#000000" stroke="none" fill-opacity="0.2" transform="matrix(1 0 0 1 1082 415 )" />
  </g>
</svg>