<svg xmlns="http://www.w3.org/2000/svg" class="icon" viewBox="0 0 1024 1024" width="200" height="200" t="1596520523065" p-id="2266" version="1.1"><path fill="#1dac4b" d="M 640 736 H 32 c -19.2 0 -32 12.8 -32 32 v 160 c 0 19.2 12.8 32 32 32 H 640 c 19.2 0 32 -12.8 32 -32 V 768 c 0 -19.2 -12.8 -32 -32 -32 Z M 576 704 c 19.2 0 32 -12.8 32 -32 S 595.2 640 576 640 H 96 c -19.2 0 -32 12.8 -32 32 c 0 12.8 12.8 32 32 32 H 576 Z M 332.8 352 C 6.4 352 0 576 0 576 c 0 19.2 12.8 32 32 32 H 640 c 19.2 0 32 -12.8 32 -32 c 0 0 -6.4 -224 -339.2 -224 Z m -262.4 192 c 19.2 -44.8 70.4 -128 262.4 -128 s 249.6 76.8 262.4 128 H 70.4 Z m 947.2 -243.2 c -6.4 -6.4 -12.8 -12.8 -25.6 -12.8 h -166.4 l -32 -192 c 0 -19.2 -19.2 -25.6 -38.4 -25.6 s -32 19.2 -25.6 38.4 l 32 185.6 h -25.6 c -6.4 0 -19.2 6.4 -25.6 12.8 c -6.4 0 -6.4 6.4 -6.4 19.2 l 32 601.6 c 0 19.2 12.8 32 32 32 h 192 c 19.2 0 32 -12.8 32 -32 l 32 -601.6 c 0 -12.8 0 -19.2 -6.4 -25.6 Z" p-id="2267" /></svg>