<?xml version="1.0" encoding="utf-8"?>
<svg version="1.1" xmlns:xlink="http://www.w3.org/1999/xlink" width="117px" height="150px" xmlns="http://www.w3.org/2000/svg">
  <g transform="matrix(1 0 0 1 -14 -63 )">
    <path d="M 14 63  L 131 63  L 131 213  L 14 213  L 14 63  " fill-rule="nonzero" fill="#cccccc" stroke="none" />
    <path d="M 22 71  L 123 71  L 123 205  L 22 205  L 22 71  " fill-rule="nonzero" fill="#ffffff" stroke="none" />
    <path d="M 83.615 103.05  C 78.701 103.05  74.84 99.189  74.84 94.275  C 74.84 89.361  78.701 85.5  83.615 85.5  C 88.529 85.5  92.39 89.361  92.39 94.275  C 92.39 99.189  88.529 103.05  83.615 103.05  " fill-rule="nonzero" fill="#cccccc" stroke="none" />
    <path d="M 25 202  L 25 131.6  L 48.75 99.6  L 82 125.2  L 101 118.8  L 120 125.2  L 120 202  L 25 202  " fill-rule="nonzero" fill="#169bd5" stroke="none" />
  </g>
</svg>