<?xml version="1.0" encoding="utf-8"?>
<svg version="1.1" xmlns:xlink="http://www.w3.org/1999/xlink" width="23px" height="20px" xmlns="http://www.w3.org/2000/svg">
  <g transform="matrix(1 0 0 1 -1640 -169 )">
    <path d="M 22.01171875 0.0668896321070234  C 22.2513020833333 -0.0297287253808998  22.4759114583333 -0.00743218134522383  22.685546875 0.133779264214047  C 22.8951822916667 0.282422891118543  23 0.479375696767002  23 0.724637681159421  L 23 16.4214046822742  C 23 16.5700483091787  22.9588216145833 16.7038275733928  22.87646484375 16.8227424749164  C 22.7941080729167 16.94165737644  22.685546875 17.0271274619101  22.55078125 17.0791527313266  L 15.36328125 19.933110367893  C 15.18359375 20.0148643626905  15.00390625 20.0148643626905  14.82421875 19.933110367893  L 7.90625 17.190635451505  L 0.98828125 19.933110367893  C 0.913411458333333 19.9702712746191  0.823567708333333 19.9888517279822  0.71875 19.9888517279822  C 0.576497395833333 19.9888517279822  0.441731770833333 19.9479747305834  0.314453125 19.866220735786  C 0.104817708333333 19.7175771088815  0 19.520624303233  0 19.2753623188406  L 0 3.57859531772575  C 0 3.42995169082125  0.0411783854166667 3.29617242660721  0.12353515625 3.17725752508361  C 0.205891927083333 3.05834262356001  0.314453125 2.97287253808993  0.44921875 2.92084726867336  L 7.63671875 0.0668896321070234  C 7.81640625 -0.0148643626904521  7.99609375 -0.0148643626904521  8.17578125 0.0668896321070234  L 15.09375 2.80936454849498  L 22.01171875 0.0668896321070234  Z M 14.734375 4.20289855072464  L 8.265625 1.63879598662207  L 8.265625 15.7971014492754  L 14.734375 18.3612040133779  L 14.734375 4.20289855072464  Z M 8 1.63879598662207  L 1.4375 4.05797101449275  L 1.4375 18.216276477146  L 8 15.7971014492754  L 8 1.63879598662207  Z M 15 18.3612040133779  L 21.5625 15.9420289855072  L 21.5625 1.78372352285396  L 15 4.20289855072464  L 15 18.3612040133779  Z " fill-rule="nonzero" fill="#95f204" stroke="none" fill-opacity="0.996078431372549" transform="matrix(1 0 0 1 1640 169 )" />
  </g>
</svg>