<?xml version="1.0" encoding="utf-8"?>
<svg version="1.1" xmlns:xlink="http://www.w3.org/1999/xlink" width="145px" height="80px" xmlns="http://www.w3.org/2000/svg">
  <g transform="matrix(1 0 0 1 -1517 -120 )">
    <path d="M 117.709517045455 36.875  C 118.327414772727 37.2159090909091  118.636363636364 37.6515151515152  118.636363636364 38.1818181818182  L 118.636363636364 41.8181818181818  C 118.636363636364 42.3484848484848  118.327414772727 42.7840909090909  117.709517045455 43.125  C 117.091619318182 43.4659090909091  116.302083333333 43.6363636363636  115.340909090909 43  L 92.9999999999993 43  L 79 43.6363636363636  L 79 63.6363636363636  C 79.090909090909 64.1666666666667  78.7819602272727 64.6022727272727  78.1640625 64.9431818181818  C 77.5461647727273 65.2840909090909  76.7566287878788 65.4545454545454  75.7954545454545 65.4545454545454  L 69.2045454545455 65.4545454545454  C 68.2433712121212 65.4545454545454  67.4538352272727 65.2840909090909  66.8359375 64.9431818181818  C 66.2180397727273 64.6022727272727  65.909090909091 64.1666666666667  66 63.6363636363636  L 66 43  L 29.659090909091 43  C 28.6979166666667 43.6363636363636  27.9083806818182 43.4659090909091  27.2904829545455 43.125  C 26.6725852272727 42.7840909090909  26.3636363636363 42.3484848484848  26.3636363636363 41.8181818181818  L 26.3636363636363 38.1818181818182  C 26.3636363636363 37.6515151515152  26.6725852272727 37.2159090909091  27.2904829545455 36.875  C 27.9083806818182 36.5340909090909  28.6979166666667 36.3636363636364  29.659090909091 37  L 66 37  L 66 16.3636363636364  C 65.909090909091 15.8333333333333  66.2180397727273 15.3977272727273  66.8359375 15.0568181818182  C 67.4538352272727 14.7159090909091  68.2433712121212 14.5454545454545  69.2045454545455 14.5454545454545  L 75.7954545454545 14.5454545454545  C 76.7566287878788 14.5454545454545  77.5461647727273 14.7159090909091  78.1640625 15.0568181818182  C 78.7819602272727 15.3977272727273  79.090909090909 15.8333333333333  79 16.3636363636364  L 79 37  L 115.340909090909 37  C 116.302083333333 36.3636363636364  117.091619318182 36.5340909090909  117.709517045455 36.875  Z M 126.977982954545 70.0568181818182  C 130.20478219697 68.2765151515151  131.818181818182 66.1363636363636  131 63.6363636363636  L 131 16.3636363636364  C 131.818181818182 13.8636363636364  130.20478219697 11.7234848484848  126.977982954545 9.94318181818181  C 123.751183712121 8.16287878787878  119.872159090909 7.27272727272728  115.340909090909 8  L 29.659090909091 8  C 25.127840909091 7.27272727272728  21.2488162878788 8.16287878787878  18.0220170454545 9.94318181818181  C 14.7952178030303 11.7234848484848  13.1818181818182 13.8636363636364  14 16.3636363636364  L 14 63.6363636363636  C 13.1818181818182 66.1363636363636  14.7952178030303 68.2765151515151  18.0220170454545 70.0568181818182  C 21.2488162878788 71.8371212121212  25.127840909091 72.7272727272727  29.659090909091 72  L 115.340909090909 72  C 119.872159090909 72.7272727272727  123.751183712121 71.8371212121212  126.977982954545 70.0568181818182  Z M 136.297940340909 4.80113636363637  C 142.09931344697 8.00189393939394  145 11.8560606060606  145 16.3636363636364  L 145 63.6363636363636  C 145 68.1439393939394  142.09931344697 71.9981060606061  136.297940340909 75.1988636363636  C 130.496567234848 78.3996212121212  123.510890151515 80  115.340909090909 80  L 29.659090909091 80  C 21.4891098484848 80  14.5034327651515 78.3996212121212  8.70205965909099 75.1988636363636  C 2.90068655303025 71.9981060606061  0 68.1439393939394  0 63.6363636363636  L 0 16.3636363636364  C 0 11.8560606060606  2.90068655303025 8.00189393939394  8.70205965909099 4.80113636363637  C 14.5034327651515 1.60037878787878  21.4891098484848 0  29.659090909091 0  L 115.340909090909 0  C 123.510890151515 0  130.496567234848 1.60037878787878  136.297940340909 4.80113636363637  Z " fill-rule="nonzero" fill="#ffffff" stroke="none" fill-opacity="0.2" transform="matrix(1 0 0 1 1517 120 )" />
  </g>
</svg>