<svg xmlns="http://www.w3.org/2000/svg" class="icon" viewBox="0 0 1024 1024" width="200" height="200" t="1595815858829" p-id="8836" version="1.1"><path fill="#d4237a" d="M 696.9 921.2 h -506 c -43.7 0 -79.2 -36.9 -79.2 -82.3 V 291.8 c 0 -45.4 35.5 -82.3 79.2 -82.3 H 862 c 43.7 0 79.2 36.9 79.2 82.3 v 356.3 c 0 20.4 -7.2 39.9 -20.4 55.1 l -165 190.7 c -15.1 17.4 -36.5 27.3 -58.9 27.3 Z m -506 -663.1 c -16.9 0 -30.6 15.1 -30.6 33.7 v 547.1 c 0 18.6 13.7 33.7 30.6 33.7 h 506 c 8.3 0 16.3 -3.8 22.1 -10.5 l 165.1 -190.8 c 5.5 -6.3 8.5 -14.5 8.5 -23.2 V 291.8 c 0 -18.6 -13.7 -33.7 -30.6 -33.7 H 190.9 Z" p-id="8837" /><path fill="#d4237a" d="M 710 911.9 c -13.8 0 -25 -11.2 -25 -25 V 702.4 c 0 -32.2 26.2 -58.4 58.4 -58.4 h 163.5 c 13.8 0 25 11.2 25 25 s -11.2 25 -25 25 H 743.4 c -4.6 0 -8.4 3.8 -8.4 8.4 v 184.5 c 0 13.8 -11.2 25 -25 25 Z" p-id="8838" /><path fill="#d4237a" d="M 617.6 710.6 h -228 c -13.8 0 -25 -11.2 -25 -25 s 11.2 -25 25 -25 h 228 c 13.8 0 25 11.2 25 25 s -11.2 25 -25 25 Z M 557.6 595.6 h -168 c -13.8 0 -25 -11.2 -25 -25 s 11.2 -25 25 -25 h 168 c 13.8 0 25 11.2 25 25 s -11.2 25 -25 25 Z M 647.6 480.6 h -258 c -13.8 0 -25 -11.2 -25 -25 s 11.2 -25 25 -25 h 258 c 13.8 0 25 11.2 25 25 s -11.2 25 -25 25 Z" p-id="8839" /><path fill="#d4237a" d="M 526 475.3 h -16.8 c -59.9 0 -108.7 -51.5 -108.7 -114.9 v -65.3 c 0 -11 9 -20 20 -20 s 20 9 20 20 v 65.3 c 0 41.3 30.8 74.9 68.7 74.9 H 526 c 37.9 0 68.7 -33.6 68.7 -74.9 V 172.5 c 0 -11 9 -20 20 -20 s 20 9 20 20 v 187.9 c 0 63.4 -48.8 114.9 -108.7 114.9 Z" p-id="8840" /><path fill="#d4237a" d="M 519.1 415.1 c -32.2 0 -58.4 -27.4 -58.4 -61.1 V 156.5 c 0 -11 9 -20 20 -20 s 20 9 20 20 V 354 c 0 11.4 8.4 21.1 18.4 21.1 s 18.4 -9.7 18.4 -21.1 v -72.5 c 0 -11 9 -20 20 -20 s 20 9 20 20 V 354 c 0 33.7 -26.2 61.1 -58.4 61.1 Z" p-id="8841" /><path fill="#d4237a" d="M 614.7 340.8 c -11 0 -20 -9 -20 -20 V 171.1 c 0 -28.7 -21.3 -52.1 -47.4 -52.1 s -47.4 23.4 -47.4 52.1 v 149.6 c 0 11 -9 20 -20 20 s -20 -9 -20 -20 V 171.1 c 0 -50.8 39.2 -92.1 87.4 -92.1 s 87.4 41.3 87.4 92.1 v 149.7 c 0 11 -9 20 -20 20 Z" p-id="8842" /></svg>