<?xml version="1.0" encoding="utf-8"?>
<svg version="1.1" xmlns:xlink="http://www.w3.org/1999/xlink" width="70px" height="90px" xmlns="http://www.w3.org/2000/svg">
  <defs>
    <filter x="1666px" y="142px" width="70px" height="90px" filterUnits="userSpaceOnUse" id="filter99">
      <feOffset dx="1" dy="1" in="SourceAlpha" result="shadowOffsetInner" />
      <feGaussianBlur stdDeviation="2.5" in="shadowOffsetInner" result="shadowGaussian" />
      <feComposite in2="shadowGaussian" operator="atop" in="SourceAlpha" result="shadowComposite" />
      <feColorMatrix type="matrix" values="0 0 0 0 0  0 0 0 0 0  0 0 0 0 0  0 0 0 0.698039215686274 0  " in="shadowComposite" />
    </filter>
    <g id="widget100">
      <path d="M 1700 225.036928468354  C 1688.2 205.40734059591  1670.5 193.629587872444  1670.5 174  C 1670.5 163.785714285714  1676.4 146.5  1700 146.5  C 1723.6 146.5  1729.5 163.785714285714  1729.5 174  C 1729.5 193.629587872444  1711.8 205.40734059591  1700 225.036928468354  Z " fill-rule="nonzero" fill="#f59a23" stroke="none" />
      <path d="M 1700 226  C 1688 206  1670 194  1670 174  C 1670 163.6  1676 146  1700 146  C 1724 146  1730 163.6  1730 174  C 1730 194  1712 206  1700 226  Z M 1700 224.073856936707  C 1711.6 204.81468119182  1729 193.259175744887  1729 174  C 1729 163.971428571429  1723.2 147  1700 147  C 1676.8 147  1671 163.971428571429  1671 174  C 1671 193.259175744887  1688.4 204.81468119182  1700 224.073856936707  Z " fill-rule="nonzero" fill="#ffffff" stroke="none" />
    </g>
  </defs>
  <g transform="matrix(1 0 0 1 -1666 -142 )">
    <use xlink:href="#widget100" filter="url(#filter99)" />
    <use xlink:href="#widget100" />
  </g>
</svg>