<?xml version="1.0" encoding="utf-8"?>
<svg version="1.1" xmlns:xlink="http://www.w3.org/1999/xlink" width="26px" height="25px" xmlns="http://www.w3.org/2000/svg">
  <g transform="matrix(1 0 0 1 -1580 -171 )">
    <path d="M 9.28835227272727 9.521484375  C 9.39914772727273 9.619140625  9.45454545454546 9.74392361111111  9.45454545454546 9.89583333333333  L 9.45454545454546 19.2708333333333  C 9.45454545454546 19.4227430555556  9.39914772727273 19.5475260416667  9.28835227272727 19.6451822916667  C 9.17755681818182 19.7428385416667  9.03598484848485 19.7916666666667  8.86363636363636 19.7916666666667  L 7.68181818181818 19.7916666666667  C 7.5094696969697 19.7916666666667  7.36789772727273 19.7428385416667  7.25710227272727 19.6451822916667  C 7.14630681818182 19.5475260416667  7.09090909090909 19.4227430555556  7.09090909090909 19.2708333333333  L 7.09090909090909 9.89583333333333  C 7.09090909090909 9.74392361111111  7.14630681818182 9.619140625  7.25710227272727 9.521484375  C 7.36789772727273 9.423828125  7.5094696969697 9.375  7.68181818181818 9.375  L 8.86363636363636 9.375  C 9.03598484848485 9.375  9.17755681818182 9.423828125  9.28835227272727 9.521484375  Z M 14.015625 9.521484375  C 14.1264204545455 9.619140625  14.1818181818182 9.74392361111111  14.1818181818182 9.89583333333333  L 14.1818181818182 19.2708333333333  C 14.1818181818182 19.4227430555556  14.1264204545455 19.5475260416667  14.015625 19.6451822916667  C 13.9048295454545 19.7428385416667  13.7632575757576 19.7916666666667  13.5909090909091 19.7916666666667  L 12.4090909090909 19.7916666666667  C 12.2367424242424 19.7916666666667  12.0951704545455 19.7428385416667  11.984375 19.6451822916667  C 11.8735795454545 19.5475260416667  11.8181818181818 19.4227430555556  11.8181818181818 19.2708333333333  L 11.8181818181818 9.89583333333333  C 11.8181818181818 9.74392361111111  11.8735795454545 9.619140625  11.984375 9.521484375  C 12.0951704545455 9.423828125  12.2367424242424 9.375  12.4090909090909 9.375  L 13.5909090909091 9.375  C 13.7632575757576 9.375  13.9048295454545 9.423828125  14.015625 9.521484375  Z M 18.7428977272727 9.521484375  C 18.8536931818182 9.619140625  18.9090909090909 9.74392361111111  18.9090909090909 9.89583333333333  L 18.9090909090909 19.2708333333333  C 18.9090909090909 19.4227430555556  18.8536931818182 19.5475260416667  18.7428977272727 19.6451822916667  C 18.6321022727273 19.7428385416667  18.4905303030303 19.7916666666667  18.3181818181818 19.7916666666667  L 17.1363636363636 19.7916666666667  C 16.9640151515152 19.7916666666667  16.8224431818182 19.7428385416667  16.7116477272727 19.6451822916667  C 16.6008522727273 19.5475260416667  16.5454545454545 19.4227430555556  16.5454545454545 19.2708333333333  L 16.5454545454545 9.89583333333333  C 16.5454545454545 9.74392361111111  16.6008522727273 9.619140625  16.7116477272727 9.521484375  C 16.8224431818182 9.423828125  16.9640151515152 9.375  17.1363636363636 9.375  L 18.3181818181818 9.375  C 18.4905303030303 9.375  18.6321022727273 9.423828125  18.7428977272727 9.521484375  Z M 21.1434659090909 22.3388671875  C 21.2296401515152 22.1381293402778  21.2727272727273 21.9184027777778  21 21.6796875  L 21 6.25  L 5 6.25  L 5 21.6796875  C 4.72727272727273 21.9184027777778  4.77035984848485 22.1381293402778  4.85653409090909 22.3388671875  C 4.94270833333333 22.5396050347222  5.03196022727273 22.6860894097222  5.12428977272727 22.7783203125  C 5.21661931818182 22.8705512152778  5.28125 22.9166666666667  5.31818181818182 23  L 20.6818181818182 23  C 20.71875 22.9166666666667  20.7833806818182 22.8705512152778  20.8757102272727 22.7783203125  C 20.9680397727273 22.6860894097222  21.0572916666667 22.5396050347222  21.1434659090909 22.3388671875  Z M 9.76846590909091 2.26236979166667  L 8.86363636363636 4.16666666666667  L 17.1363636363636 4.16666666666667  L 16.25 2.26236979166667  C 16.1638257575758 2.16471354166667  16.0591856060606 2.10503472222222  15.9360795454545 2.08333333333333  L 10.0823863636364 2.08333333333333  C 9.9592803030303 2.10503472222222  9.85464015151515 2.16471354166667  9.76846590909091 2.26236979166667  Z M 25.8338068181818 4.31315104166667  C 25.9446022727273 4.41080729166667  26 4.53559027777778  26 4.6875  L 26 5.72916666666667  C 26 5.88107638888889  25.9446022727273 6.005859375  25.8338068181818 6.103515625  C 25.7230113636364 6.201171875  25.5814393939394 6.25  25.4090909090909 6.25  L 23.6363636363636 6.25  L 23.6363636363636 21.6796875  C 23.6363636363636 22.5802951388889  23.3470643939394 23.3588324652778  22.7684659090909 24.0152994791667  C 22.1898674242424 24.6717664930556  21.4943181818182 25  20.6818181818182 25  L 5.31818181818182 25  C 4.50568181818182 25  3.81013257575758 24.6826171875  3.23153409090909 24.0478515625  C 2.65293560606061 23.4130859375  2.36363636363636 22.6453993055556  2.36363636363636 21.7447916666667  L 2.36363636363636 6.25  L 0.590909090909091 6.25  C 0.418560606060606 6.25  0.276988636363636 6.201171875  0.166193181818182 6.103515625  C 0.0553977272727273 6.005859375  0 5.88107638888889  0 5.72916666666667  L 0 4.6875  C 0 4.53559027777778  0.0553977272727273 4.41080729166667  0.166193181818182 4.31315104166667  C 0.276988636363636 4.21549479166667  0.418560606060606 4.16666666666667  0.590909090909091 4.16666666666667  L 6.296875 4.16666666666667  L 7.58948863636364 1.44856770833333  C 7.77414772727273 1.04709201388889  8.10653409090909 0.705295138888887  8.58664772727273 0.423177083333334  C 9.06676136363637 0.141059027777776  9.5530303030303 0  10.0454545454545 0  L 15.9545454545455 0  C 16.4469696969697 0  16.9332386363636 0.141059027777776  17.4133522727273 0.423177083333334  C 17.8934659090909 0.705295138888887  18.2258522727273 1.04709201388889  18.4105113636364 1.44856770833333  L 19.703125 4.16666666666667  L 25.4090909090909 4.16666666666667  C 25.5814393939394 4.16666666666667  25.7230113636364 4.21549479166667  25.8338068181818 4.31315104166667  Z " fill-rule="nonzero" fill="#ffffff" stroke="none" transform="matrix(1 0 0 1 1580 171 )" />
  </g>
</svg>