<?xml version="1.0" encoding="utf-8"?>
<svg version="1.1" xmlns:xlink="http://www.w3.org/1999/xlink" width="260px" height="170px" xmlns="http://www.w3.org/2000/svg">
  <g transform="matrix(1 0 0 1 -485 23 )">
    <path d="M 485 -23  L 745 -23  L 745 147  L 485 147  L 485 -23  " fill-rule="nonzero" fill="#cccccc" stroke="none" />
    <path d="M 497 -11  L 733 -11  L 733 135  L 497 135  L 497 -11  " fill-rule="nonzero" fill="#ffffff" stroke="none" />
    <path d="M 632.95 28  C 625.81 28  620.2 22.39  620.2 15.25  C 620.2 8.11  625.81 2.5  632.95 2.5  C 640.09 2.5  645.7 8.11  645.7 15.25  C 645.7 22.39  640.09 28  632.95 28  " fill-rule="nonzero" fill="#cccccc" stroke="none" />
    <path d="M 502 130  L 502 54.65  L 558.75 20.4  L 638.2 76.2538461538462  L 683.6 40.95  L 729 76.2538461538462  L 729 130  L 502 130  " fill-rule="nonzero" fill="#169bd5" stroke="none" />
  </g>
</svg>