<?xml version="1.0" encoding="utf-8"?>
<svg version="1.1" xmlns:xlink="http://www.w3.org/1999/xlink" width="22px" height="26px" xmlns="http://www.w3.org/2000/svg">
  <g transform="matrix(1 0 0 1 -1586 -162 )">
    <path d="M 16.5572916666667 0.986607142857144  L 21.0260416666667 5.51339285714286  C 21.2934027777778 5.78422619047619  21.5225694444444 6.15178571428572  21.7135416666667 6.61607142857143  C 21.9045138888889 7.08035714285714  22 7.50595238095238  22 7.89285714285714  L 22 24.6071428571429  C 22 24.9940476190476  21.8663194444444 25.3229166666667  21.5989583333333 25.59375  C 21.3315972222222 25.8645833333333  21.0069444444444 26  20.625 26  L 1.375 26  C 0.993055555555556 26  0.668402777777778 25.8645833333333  0.401041666666667 25.59375  C 0.133680555555556 25.3229166666667  0 24.9940476190476  0 24.6071428571429  L 0 1.39285714285714  C 0 1.00595238095238  0.133680555555556 0.677083333333332  0.401041666666667 0.40625  C 0.668402777777778 0.135416666666668  0.993055555555556 0  1.375 0  L 14.2083333333333 0  C 14.5902777777778 0  15.0104166666667 0.0967261904761916  15.46875 0.290178571428572  C 15.9270833333333 0.483630952380952  16.2899305555556 0.715773809523808  16.5572916666667 0.986607142857144  Z M 15.25390625 2.29241071428572  C 15.1393229166667 2.17633928571428  14.9435763888889 2.06994047619047  14.6666666666667 1.97321428571428  L 14.6666666666667 7.42857142857143  L 20.0520833333333 7.42857142857143  C 19.9565972222222 7.14806547619047  19.8515625 6.94977678571428  19.7369791666667 6.83370535714286  L 15.25390625 2.29241071428572  Z M 2 24  L 20 24  L 20 9.28571428571428  L 14.2083333333333 9.28571428571428  C 13.8263888888889 9.28571428571428  13.5017361111111 9.15029761904762  13.234375 8.87946428571428  C 12.9670138888889 8.60863095238095  12.8333333333333 8.2797619047619  12.8333333333333 7.89285714285714  L 12.8333333333333 2  L 2 2  L 2 24  Z M 5.5 12.5357142857143  L 5.5 11.6071428571429  C 5.5 11.4717261904762  5.54296875 11.3604910714286  5.62890625 11.2734375  C 5.71484375 11.1863839285714  5.82465277777778 11.1428571428571  5.95833333333333 11.1428571428571  L 16.0416666666667 11.1428571428571  C 16.1753472222222 11.1428571428571  16.28515625 11.1863839285714  16.37109375 11.2734375  C 16.45703125 11.3604910714286  16.5 11.4717261904762  16.5 11.6071428571429  L 16.5 12.5357142857143  C 16.5 12.671130952381  16.45703125 12.7823660714286  16.37109375 12.8694196428571  C 16.28515625 12.9564732142857  16.1753472222222 13  16.0416666666667 13  L 5.95833333333333 13  C 5.82465277777778 13  5.71484375 12.9564732142857  5.62890625 12.8694196428571  C 5.54296875 12.7823660714286  5.5 12.671130952381  5.5 12.5357142857143  Z M 5.95833333333333 14.8571428571429  L 16.0416666666667 14.8571428571429  C 16.1753472222222 14.8571428571429  16.28515625 14.9006696428571  16.37109375 14.9877232142857  C 16.45703125 15.0747767857143  16.5 15.1860119047619  16.5 15.3214285714286  L 16.5 16.25  C 16.5 16.3854166666667  16.45703125 16.4966517857143  16.37109375 16.5837053571429  C 16.28515625 16.6707589285714  16.1753472222222 16.7142857142857  16.0416666666667 16.7142857142857  L 5.95833333333333 16.7142857142857  C 5.82465277777778 16.7142857142857  5.71484375 16.6707589285714  5.62890625 16.5837053571429  C 5.54296875 16.4966517857143  5.5 16.3854166666667  5.5 16.25  L 5.5 15.3214285714286  C 5.5 15.1860119047619  5.54296875 15.0747767857143  5.62890625 14.9877232142857  C 5.71484375 14.9006696428571  5.82465277777778 14.8571428571429  5.95833333333333 14.8571428571429  Z M 5.95833333333333 18.5714285714286  L 16.0416666666667 18.5714285714286  C 16.1753472222222 18.5714285714286  16.28515625 18.6149553571429  16.37109375 18.7020089285714  C 16.45703125 18.7890625  16.5 18.9002976190476  16.5 19.0357142857143  L 16.5 19.9642857142857  C 16.5 20.0997023809524  16.45703125 20.2109375  16.37109375 20.2979910714286  C 16.28515625 20.3850446428571  16.1753472222222 20.4285714285714  16.0416666666667 20  L 5.95833333333333 20  C 5.82465277777778 20.4285714285714  5.71484375 20.3850446428571  5.62890625 20.2979910714286  C 5.54296875 20.2109375  5.5 20.0997023809524  5.5 19.9642857142857  L 5.5 19.0357142857143  C 5.5 18.9002976190476  5.54296875 18.7890625  5.62890625 18.7020089285714  C 5.71484375 18.6149553571429  5.82465277777778 18.5714285714286  5.95833333333333 18.5714285714286  Z " fill-rule="nonzero" fill="#ffffff" stroke="none" transform="matrix(1 0 0 1 1586 162 )" />
  </g>
</svg>