<?xml version="1.0" encoding="utf-8"?>
<svg version="1.1" xmlns:xlink="http://www.w3.org/1999/xlink" width="70px" height="90px" xmlns="http://www.w3.org/2000/svg">
  <defs>
    <filter x="516px" y="110px" width="70px" height="90px" filterUnits="userSpaceOnUse" id="filter15">
      <feOffset dx="1" dy="1" in="SourceAlpha" result="shadowOffsetInner" />
      <feGaussianBlur stdDeviation="2.5" in="shadowOffsetInner" result="shadowGaussian" />
      <feComposite in2="shadowGaussian" operator="atop" in="SourceAlpha" result="shadowComposite" />
      <feColorMatrix type="matrix" values="0 0 0 0 0  0 0 0 0 0  0 0 0 0 0  0 0 0 0.698039215686274 0  " in="shadowComposite" />
    </filter>
    <g id="widget16">
      <path d="M 550 193.036928468354  C 538.2 173.40734059591  520.5 161.629587872444  520.5 142  C 520.5 131.785714285714  526.4 114.5  550 114.5  C 573.6 114.5  579.5 131.785714285714  579.5 142  C 579.5 161.629587872444  561.8 173.40734059591  550 193.036928468354  Z " fill-rule="nonzero" fill="#0033ff" stroke="none" />
      <path d="M 550 194  C 538 174  520 162  520 142  C 520 131.6  526 114  550 114  C 574 114  580 131.6  580 142  C 580 162  562 174  550 194  Z M 550 192.073856936707  C 561.6 172.81468119182  579 161.259175744887  579 142  C 579 131.971428571429  573.2 115  550 115  C 526.8 115  521 131.971428571429  521 142  C 521 161.259175744887  538.4 172.81468119182  550 192.073856936707  Z " fill-rule="nonzero" fill="#ffffff" stroke="none" />
    </g>
  </defs>
  <g transform="matrix(1 0 0 1 -516 -110 )">
    <use xlink:href="#widget16" filter="url(#filter15)" />
    <use xlink:href="#widget16" />
  </g>
</svg>