<?xml version="1.0" encoding="utf-8"?>
<svg version="1.1" xmlns:xlink="http://www.w3.org/1999/xlink" width="70px" height="90px" xmlns="http://www.w3.org/2000/svg">
  <defs>
    <filter x="1033px" y="142px" width="70px" height="90px" filterUnits="userSpaceOnUse" id="filter17">
      <feOffset dx="1" dy="1" in="SourceAlpha" result="shadowOffsetInner" />
      <feGaussianBlur stdDeviation="2.5" in="shadowOffsetInner" result="shadowGaussian" />
      <feComposite in2="shadowGaussian" operator="atop" in="SourceAlpha" result="shadowComposite" />
      <feColorMatrix type="matrix" values="0 0 0 0 0  0 0 0 0 0  0 0 0 0 0  0 0 0 0.698039215686274 0  " in="shadowComposite" />
    </filter>
    <g id="widget18">
      <path d="M 1067 225.036928468354  C 1055.2 205.40734059591  1037.5 193.629587872444  1037.5 174  C 1037.5 163.785714285714  1043.4 146.5  1067 146.5  C 1090.6 146.5  1096.5 163.785714285714  1096.5 174  C 1096.5 193.629587872444  1078.8 205.40734059591  1067 225.036928468354  Z " fill-rule="nonzero" fill="#7f00ff" stroke="none" />
      <path d="M 1067 226  C 1055 206  1037 194  1037 174  C 1037 163.6  1043 146  1067 146  C 1091 146  1097 163.6  1097 174  C 1097 194  1079 206  1067 226  Z M 1067 224.073856936707  C 1078.6 204.81468119182  1096 193.259175744887  1096 174  C 1096 163.971428571429  1090.2 147  1067 147  C 1043.8 147  1038 163.971428571429  1038 174  C 1038 193.259175744887  1055.4 204.81468119182  1067 224.073856936707  Z " fill-rule="nonzero" fill="#ffffff" stroke="none" />
    </g>
  </defs>
  <g transform="matrix(1 0 0 1 -1033 -142 )">
    <use xlink:href="#widget18" filter="url(#filter17)" />
    <use xlink:href="#widget18" />
  </g>
</svg>