<?xml version="1.0" encoding="utf-8"?>
<svg version="1.1" xmlns:xlink="http://www.w3.org/1999/xlink" width="30px" height="26px" xmlns="http://www.w3.org/2000/svg">
  <g transform="matrix(1 0 0 1 -1489 -492 )">
    <path d="M 10.0864955357143 9.30143229166667  C 10.5050223214286 9.724609375  10.7142857142857 10.2352430555556  10.7142857142857 10.8333333333333  C 10.7142857142857 11.4314236111111  10.5050223214286 11.9420572916667  10.0864955357143 12.365234375  C 9.66796875 12.7884114583333  9.16294642857143 13  8.57142857142857 13  C 7.97991071428572 13  7.47488839285714 12.7884114583333  7.05636160714286 12.365234375  C 6.63783482142857 11.9420572916667  6.42857142857143 11.4314236111111  6.42857142857143 10.8333333333333  C 6.42857142857143 10.2352430555556  6.63783482142857 9.724609375  7.05636160714286 9.30143229166667  C 7.47488839285714 8.87825520833333  7.97991071428572 8.66666666666667  8.57142857142857 8.66666666666667  C 9.16294642857143 8.66666666666667  9.66796875 8.87825520833333  10.0864955357143 9.30143229166667  Z M 16.5150669642857 9.30143229166667  C 16.93359375 9.724609375  17.1428571428571 10.2352430555556  17.1428571428571 10.8333333333333  C 17.1428571428571 11.4314236111111  16.93359375 11.9420572916667  16.5150669642857 12.365234375  C 16.0965401785714 12.7884114583333  15.5915178571429 13  15 13  C 14.4084821428571 13  13.9034598214286 12.7884114583333  13.4849330357143 12.365234375  C 13.06640625 11.9420572916667  12.8571428571429 11.4314236111111  12.8571428571429 10.8333333333333  C 12.8571428571429 10.2352430555556  13.06640625 9.724609375  13.4849330357143 9.30143229166667  C 13.9034598214286 8.87825520833333  14.4084821428571 8.66666666666667  15 8.66666666666667  C 15.5915178571429 8.66666666666667  16.0965401785714 8.87825520833333  16.5150669642857 9.30143229166667  Z M 22.9436383928571 9.30143229166667  C 23.3621651785714 9.724609375  23.5714285714286 10.2352430555556  23.5714285714286 10.8333333333333  C 23.5714285714286 11.4314236111111  23.3621651785714 11.9420572916667  22.9436383928571 12.365234375  C 22.5251116071429 12.7884114583333  22.0200892857143 13  21.4285714285714 13  C 20.8370535714286 13  20.33203125 12.7884114583333  19.9135044642857 12.365234375  C 19.4949776785714 11.9420572916667  19.2857142857143 11.4314236111111  19.2857142857143 10.8333333333333  C 19.2857142857143 10.2352430555556  19.4949776785714 9.724609375  19.9135044642857 9.30143229166667  C 20.33203125 8.87825520833333  20.8370535714286 8.66666666666667  21.4285714285714 8.66666666666667  C 22.0200892857143 8.66666666666667  22.5251116071429 8.87825520833333  22.9436383928571 9.30143229166667  Z M 21.38671875 3.34309895833333  C 19.4056919642857 2.55881076388889  17.2767857142857 2.16666666666667  15 2.16666666666667  C 12.7232142857143 2.16666666666667  10.5943080357143 2.55881076388889  8.61328125 3.34309895833333  C 6.63225446428571 4.12738715277778  5.05859375 5.18532986111111  3.89229910714286 6.51692708333333  C 2.72600446428571 7.84852430555555  2.14285714285714 9.28732638888889  2.14285714285714 10.8333333333333  C 2.14285714285714 12.0972222222222  2.54185267857143 13.3018663194444  3.33984375 14.447265625  C 4.13783482142857 15.5926649305556  5.26227678571429 16.5828993055556  6.71316964285714 17.41796875  L 8.16964285714286 18.2643229166667  L 7.71763392857143 19.8893229166667  C 7.44977678571429 20.9162326388889  7.05915178571429 21.88671875  6.54575892857143 22.80078125  C 8.2421875 22.08984375  9.77678571428572 21.125  11.1495535714286 19.90625  L 11.8694196428571 19.2630208333333  L 12.8236607142857 19.3645833333333  C 13.59375 19.4548611111111  14.3191964285714 19.5  15 19.5  C 17.2767857142857 19.5  19.4056919642857 19.1078559027778  21.38671875 18.3235677083333  C 23.3677455357143 17.5392795138889  24.94140625 16.4813368055556  26.1077008928571 15.1497395833333  C 27.2739955357143 13.8181423611111  27.8571428571429 12.3793402777778  27.8571428571429 10.8333333333333  C 27.8571428571429 9.28732638888889  27.2739955357143 7.84852430555555  26.1077008928571 6.51692708333333  C 24.94140625 5.18532986111111  23.3677455357143 4.12738715277778  21.38671875 3.34309895833333  Z M 28.8113839285714 6.626953125  C 29.6037946428571 7.96419270833333  30 9.36631944444444  30 10.8333333333333  C 30 12.796875  29.3303571428571 14.6108940972222  27.9910714285714 16.275390625  C 26.6517857142857 17.9398871527778  24.8325892857143 19.2545572916667  22.5334821428571 20.2194010416667  C 20.234375 21.1842447916667  17.7232142857143 21.6666666666667  15 21.6666666666667  C 14.21875 21.6666666666667  13.4095982142857 21.6215277777778  12.5725446428571 21.53125  C 10.3627232142857 23.5060763888889  7.79575892857143 24.8715277777778  4.87165178571429 25.6276041666667  C 4.32477678571429 25.7855902777778  3.68861607142857 25.9097222222222  2.96316964285714 26  L 2.87946428571429 26  C 2.71205357142857 26  2.56138392857143 25.9407552083333  2.42745535714286 25.822265625  C 2.29352678571429 25.7037760416667  2.20424107142857 25.5486111111111  2.15959821428571 25.3567708333333  L 2.15959821428571 25.33984375  C 2.12611607142857 25.2947048611111  2.12332589285714 25.2269965277778  2.15122767857143 25.13671875  C 2.17912946428571 25.0464409722222  2.19029017857143 24.9900173611111  2.18470982142857 24.9674479166667  C 2.17912946428571 24.9448784722222  2.20424107142857 24.8912760416667  2.26004464285714 24.806640625  L 2.36049107142857 24.654296875  C 2.36049107142857 24.654296875  2.39955357142857 24.6063368055556  2.47767857142857 24.5104166666667  C 2.55580357142857 24.4144965277778  2.60044642857143 24.3637152777778  2.61160714285714 24.3580729166667  C 2.68973214285714 24.2677951388889  2.86272321428571 24.0731336805556  3.13058035714286 23.7740885416667  C 3.3984375 23.4750434027778  3.59095982142857 23.2606336805556  3.70814732142857 23.130859375  C 3.82533482142857 23.0010850694444  3.99832589285714 22.7782118055556  4.22712053571429 22.4622395833333  C 4.45591517857143 22.1462673611111  4.63727678571429 21.8585069444444  4.77120535714286 21.5989583333333  C 4.90513392857143 21.3394097222222  5.05580357142857 21.0065104166667  5.22321428571429 20.6002604166667  C 5.390625 20.1940104166667  5.53571428571429 19.7651909722222  5.65848214285714 19.3138020833333  C 3.90625 18.3094618055556  2.52511160714286 17.0681423611111  1.51506696428571 15.58984375  C 0.505022321428571 14.1115451388889  0 12.5260416666667  0 10.8333333333333  C 0 9.36631944444444  0.396205357142857 7.96419270833333  1.18861607142857 6.626953125  C 1.98102678571429 5.28971354166667  3.046875 4.13585069444444  4.38616071428571 3.16536458333333  C 5.72544642857143 2.19487847222222  7.32142857142857 1.42469618055555  9.17410714285714 0.854817708333332  C 11.0267857142857 0.28493923611111  12.96875 0  15 0  C 17.03125 0  18.9732142857143 0.28493923611111  20.8258928571429 0.854817708333332  C 22.6785714285714 1.42469618055555  24.2745535714286 2.19487847222222  25.6138392857143 3.16536458333333  C 26.953125 4.13585069444444  28.0189732142857 5.28971354166667  28.8113839285714 6.626953125  Z " fill-rule="nonzero" fill="#ffffff" stroke="none" transform="matrix(1 0 0 1 1489 492 )" />
  </g>
</svg>