<svg xmlns="http://www.w3.org/2000/svg" class="icon" viewBox="0 0 1087 1024" width="200" height="200" t="1596520588722" p-id="2234" version="1.1"><path fill="#ffb89a" d="M 855.434 286.72 c -61.44 -6.30154 -118.154 4.72615 -159.114 28.3569 c 18.9046 25.2062 31.5077 63.0154 31.5077 107.126 c 0 36.2338 -7.87692 67.7415 -22.0554 91.3723 c 34.6585 20.48 78.7692 34.6585 127.606 39.3846 c 118.154 11.0277 218.978 -39.3846 223.705 -113.428 s -83.4954 -141.785 -201.649 -152.812 Z" p-id="2235" /><path fill="#706f7c" d="M 633.305 861.735 H 439.532 c -42.5354 0 -78.7692 34.6585 -78.7692 78.7692 c 0 42.5354 34.6585 78.7692 78.7692 78.7692 h 193.772 c 42.5354 0 78.7692 -34.6585 78.7692 -78.7692 c -1.57538 -44.1108 -36.2338 -78.7692 -78.7692 -78.7692 Z m 0 99.2492 H 439.532 c -3.15077 0 -4.72615 -11.0277 -4.72615 -23.6308 s 3.15077 -23.6308 4.72615 -23.6308 h 193.772 c 3.15077 0 4.72615 11.0277 4.72615 23.6308 s -3.15077 23.6308 -4.72615 23.6308 Z" p-id="2236" /><path fill="#33cc99" d="M 518.302 341.858 c -11.0277 -15.7538 -34.6585 -20.48 -50.4123 -7.87692 c -15.7538 11.0277 -20.48 34.6585 -7.87692 50.4123 c 12.6031 18.9046 20.48 40.96 20.48 63.0154 c 0 20.48 15.7538 36.2338 36.2338 36.2338 s 36.2338 -15.7538 36.2338 -36.2338 c 0 -37.8092 -12.6031 -75.6185 -34.6585 -105.551 Z m -80.3446 -63.0154 c -22.0554 -7.87692 -44.1108 -12.6031 -67.7415 -12.6031 C 270.966 266.24 189.046 346.585 189.046 447.409 c 0 20.48 15.7538 36.2338 36.2338 36.2338 s 36.2338 -15.7538 36.2338 -36.2338 c 0 -59.8646 48.8369 -108.702 108.702 -108.702 c 14.1785 0 26.7815 3.15077 40.96 7.87692 c 18.9046 7.87692 39.3846 -1.57538 47.2615 -20.48 s -1.57538 -39.3846 -20.48 -47.2615 Z" p-id="2237" /><path fill="#706f7c" d="M 1001.94 356.037 c -14.1785 -23.6308 -33.0831 -44.1108 -58.2892 -63.0154 l 66.1662 -70.8923 c 14.1785 -14.1785 12.6031 -37.8092 -1.57538 -51.9877 c -15.7538 -12.6031 -39.3846 -11.0277 -51.9877 3.15077 l -78.7692 85.0708 c -6.30154 -1.57538 -12.6031 -4.72615 -18.9046 -6.30154 l 100.825 -193.772 c 9.45231 -17.3292 1.57538 -39.3846 -15.7538 -48.8369 c -17.3292 -9.45231 -39.3846 -1.57538 -48.8369 15.7538 l -111.852 214.252 h -20.48 c -26.7815 0 -53.5631 3.15077 -78.7692 9.45231 c -18.9046 4.72615 -31.5077 23.6308 -26.7815 44.1108 c 4.72615 18.9046 23.6308 31.5077 44.1108 26.7815 c 20.48 -4.72615 40.96 -6.30154 61.44 -6.30154 c 53.5631 0 102.4 14.1785 138.634 40.96 c 33.0831 23.6308 50.4123 53.5631 50.4123 85.0708 c 0 20.48 15.7538 36.2338 36.2338 36.2338 c 20.48 0 36.2338 -15.7538 36.2338 -36.2338 c 1.57538 -29.9323 -6.30154 -56.7138 -22.0554 -83.4954 Z" p-id="2238" /><path fill="#706f7c" d="M 792.418 949.957 c -11.0277 0 -22.0554 -6.30154 -26.7815 -17.3292 c -7.87692 -14.1785 -1.57538 -33.0831 14.1785 -39.3846 c 141.785 -70.8923 234.732 -200.074 245.76 -343.434 H 63.0154 c 11.0277 138.634 99.2492 266.24 236.308 337.132 c 14.1785 7.87692 20.48 25.2062 12.6031 40.96 c -7.87692 14.1785 -25.2062 20.48 -40.96 12.6031 C 103.975 853.858 1.57538 693.169 1.57538 519.877 v -29.9323 h 1083.86 V 519.877 c 0 178.018 -107.126 340.283 -280.418 426.929 c -4.72615 1.57538 -9.45231 3.15077 -12.6031 3.15077 Z" p-id="2239" /><path fill="#706f7c" d="M 630.154 463.163 c -15.7538 0 -29.9323 -14.1785 -29.9323 -29.9323 c 0 -127.606 -102.4 -230.006 -230.006 -230.006 S 140.209 305.625 140.209 433.231 c 0 15.7538 -14.1785 29.9323 -29.9323 29.9323 s -29.9323 -14.1785 -29.9323 -29.9323 c 0 -159.114 130.757 -289.871 289.871 -289.871 s 289.871 130.757 289.871 289.871 c 0 15.7538 -14.1785 29.9323 -29.9323 29.9323 Z" p-id="2240" /></svg>