<?xml version="1.0" encoding="utf-8"?>
<svg version="1.1" xmlns:xlink="http://www.w3.org/1999/xlink" width="81px" height="75px" xmlns="http://www.w3.org/2000/svg">
  <g transform="matrix(1 0 0 1 -1426 -464 )">
    <path d="M 65.7549715909091 34.5703125  C 66.1001420454545 34.8899147727273  66.2727272727273 35.2982954545455  66.2727272727273 35.7954545454545  L 66.2727272727273 39.2045454545455  C 66.2727272727273 39.7017045454545  66.1001420454545 40.1100852272727  65.7549715909091 40.4296875  C 65.4098011363636 40.7492897727273  64.96875 40.9090909090909  64.4318181818182 41  L 44 41  L 44 59.6590909090909  C 44.1818181818182 60.15625  44.0092329545455 60.5646306818182  43.6640625 60.8842329545455  C 43.3188920454545 61.2038352272727  42.8778409090909 61.3636363636364  42.3409090909091 61.3636363636364  L 38.6590909090909 61.3636363636364  C 38.1221590909091 61.3636363636364  37.6811079545455 61.2038352272727  37.3359375 60.8842329545455  C 36.9907670454545 60.5646306818182  36.8181818181818 60.15625  37 59.6590909090909  L 37 41  L 16.5681818181818 41  C 16.03125 40.9090909090909  15.5901988636364 40.7492897727273  15.2450284090909 40.4296875  C 14.8998579545455 40.1100852272727  14.7272727272727 39.7017045454545  14.7272727272727 39.2045454545455  L 14.7272727272727 35.7954545454545  C 14.7272727272727 35.2982954545455  14.8998579545455 34.8899147727273  15.2450284090909 34.5703125  C 15.5901988636364 34.2507102272727  16.03125 34.0909090909091  16.5681818181818 34  L 37 34  L 37 15.3409090909091  C 36.8181818181818 14.84375  36.9907670454545 14.4353693181818  37.3359375 14.1157670454545  C 37.6811079545455 13.7961647727273  38.1221590909091 13.6363636363636  38.6590909090909 13.6363636363636  L 42.3409090909091 13.6363636363636  C 42.8778409090909 13.6363636363636  43.3188920454545 13.7961647727273  43.6640625 14.1157670454545  C 44.0092329545455 14.4353693181818  44.1818181818182 14.84375  44 15.3409090909091  L 44 34  L 64.4318181818182 34  C 64.96875 34.0909090909091  65.4098011363636 34.2507102272727  65.7549715909091 34.5703125  Z M 70.9325284090909 65.6782670454545  C 72.7350852272727 64.0092329545454  73.6363636363636 62.0028409090909  73 59.6590909090909  L 73 15.3409090909091  C 73.6363636363636 12.9971590909091  72.7350852272727 10.9907670454545  70.9325284090909 9.32173295454545  C 69.1299715909091 7.65269886363636  66.9630681818182 6.81818181818182  64.4318181818182 7  L 16.5681818181818 7  C 14.0369318181818 6.81818181818182  11.8700284090909 7.65269886363636  10.0674715909091 9.32173295454545  C 8.26491477272727 10.9907670454545  7.36363636363636 12.9971590909091  8 15.3409090909091  L 8 59.6590909090909  C 7.36363636363636 62.0028409090909  8.26491477272727 64.0092329545454  10.0674715909091 65.6782670454545  C 11.8700284090909 67.3473011363636  14.0369318181818 68.1818181818182  16.5681818181818 68  L 64.4318181818182 68  C 66.9630681818182 68.1818181818182  69.1299715909091 67.3473011363636  70.9325284090909 65.6782670454545  Z M 76.1388494318182 4.50106534090909  C 79.3796164772727 7.50177556818181  81 11.1150568181818  81 15.3409090909091  L 81 59.6590909090909  C 81 63.8849431818182  79.3796164772727 67.4982244318182  76.1388494318182 70.4989346590909  C 72.8980823863636 73.4996448863636  68.9957386363636 75  64.4318181818182 75  L 16.5681818181818 75  C 12.0042613636364 75  8.10191761363637 73.4996448863636  4.86115056818182 70.4989346590909  C 1.62038352272727 67.4982244318182  0 63.8849431818182  0 59.6590909090909  L 0 15.3409090909091  C 0 11.1150568181818  1.62038352272727 7.50177556818181  4.86115056818182 4.50106534090909  C 8.10191761363637 1.50035511363636  12.0042613636364 0  16.5681818181818 0  L 64.4318181818182 0  C 68.9957386363636 0  72.8980823863636 1.50035511363636  76.1388494318182 4.50106534090909  Z " fill-rule="nonzero" fill="#ffffff" stroke="none" transform="matrix(1 0 0 1 1426 464 )" />
  </g>
</svg>