<?xml version="1.0" encoding="utf-8"?>
<svg version="1.1" xmlns:xlink="http://www.w3.org/1999/xlink" width="132px" height="75px" xmlns="http://www.w3.org/2000/svg">
  <g transform="matrix(1 0 0 1 -616 -464 )">
    <path d="M 616 464  L 748 464  L 748 539  L 616 539  L 616 464  " fill-rule="nonzero" fill="#cccccc" stroke="none" />
    <path d="M 621 469  L 743 469  L 743 534  L 621 534  L 621 469  " fill-rule="nonzero" fill="#ffffff" stroke="none" />
    <path d="M 690.265 486.5  C 687.115 486.5  684.64 484.025  684.64 480.875  C 684.64 477.725  687.115 475.25  690.265 475.25  C 693.415 475.25  695.89 477.725  695.89 480.875  C 695.89 484.025  693.415 486.5  690.265 486.5  " fill-rule="nonzero" fill="#cccccc" stroke="none" />
    <path d="M 623 532  L 623 498.45  L 652.5 483.2  L 693.8 511.204545454545  L 717.4 492.35  L 741 511.204545454545  L 741 532  L 623 532  " fill-rule="nonzero" fill="#169bd5" stroke="none" />
  </g>
</svg>