<?xml version="1.0" encoding="utf-8"?>
<svg version="1.1" xmlns:xlink="http://www.w3.org/1999/xlink" width="99px" height="75px" xmlns="http://www.w3.org/2000/svg">
  <g transform="matrix(1 0 0 1 -487 -464 )">
    <path d="M 42.949951171875 48.0224609375  C 43.191650390625 49.5361328125  43.3125 51.171875  43.3125 52.9296875  C 43.3125 54.7200520833333  42.804931640625 56.2418619791667  41.789794921875 57.4951171875  C 40.774658203125 58.7483723958333  39.55810546875 59.375  38.14013671875 59  L 17.54736328125 59  C 16.12939453125 59.375  14.912841796875 58.7483723958333  13.897705078125 57.4951171875  C 12.882568359375 56.2418619791667  12.375 54.7200520833333  12.375 52.9296875  C 12.375 51.171875  12.495849609375 49.5361328125  12.737548828125 48.0224609375  C 12.979248046875 46.5087890625  13.3740234375 45.0439453125  13.921875 43.6279296875  C 14.4697265625 42.2119140625  15.29150390625 41.0970052083333  16.38720703125 40.283203125  C 17.48291015625 39.4694010416667  18.7880859375 39.0625  20.302734375 39.0625  C 22.365234375 41.1458333333333  24.87890625 42.1875  27.84375 42.1875  C 30.80859375 42.1875  33.322265625 41.1458333333333  35.384765625 39.0625  C 36.8994140625 39.0625  38.20458984375 39.4694010416667  39.30029296875 40.283203125  C 40.39599609375 41.0970052083333  41.2177734375 42.2119140625  41.765625 43.6279296875  C 42.3134765625 45.0439453125  42.708251953125 46.5087890625  42.949951171875 48.0224609375  Z M 34.41796875 24.609375  C 36.22265625 26.4322916666667  37.125 28.6458333333333  37.125 31.25  C 37.125 33.8541666666667  36.22265625 36.0677083333333  34.41796875 37.890625  C 32.61328125 39.7135416666667  30.421875 40.625  27.84375 40.625  C 25.265625 40.625  23.07421875 39.7135416666667  21.26953125 37.890625  C 19.46484375 36.0677083333333  18.5625 33.8541666666667  18.5625 31.25  C 18.5625 28.6458333333333  19.46484375 26.4322916666667  21.26953125 24.609375  C 23.07421875 22.7864583333333  25.265625 21.875  27.84375 21.875  C 30.421875 21.875  32.61328125 22.7864583333333  34.41796875 24.609375  Z M 86.18994140625 50.439453125  C 86.47998046875 50.732421875  86.625 51.1067708333333  86.625 51.5625  L 86.625 54.6875  C 86.625 55.1432291666667  86.47998046875 55.517578125  86.18994140625 55.810546875  C 85.89990234375 56.103515625  85.529296875 56.25  85.078125 56  L 51.046875 56  C 50.595703125 56.25  50.22509765625 56.103515625  49.93505859375 55.810546875  C 49.64501953125 55.517578125  49.5 55.1432291666667  49.5 54.6875  L 49.5 51.5625  C 49.5 51.1067708333333  49.64501953125 50.732421875  49.93505859375 50.439453125  C 50.22509765625 50.146484375  50.595703125 50  51.046875 50  L 85.078125 50  C 85.529296875 50  85.89990234375 50.146484375  86.18994140625 50.439453125  Z M 67.62744140625 37.939453125  C 67.91748046875 38.232421875  68.0625 38.6067708333333  68.0625 39.0625  L 68.0625 42.1875  C 68.0625 42.6432291666667  67.91748046875 43.017578125  67.62744140625 43.310546875  C 67.33740234375 43.603515625  66.966796875 43.75  66.515625 43  L 51.046875 43  C 50.595703125 43.75  50.22509765625 43.603515625  49.93505859375 43.310546875  C 49.64501953125 43.017578125  49.5 42.6432291666667  49.5 42.1875  L 49.5 39.0625  C 49.5 38.6067708333333  49.64501953125 38.232421875  49.93505859375 37.939453125  C 50.22509765625 37.646484375  50.595703125 37.5  51.046875 37  L 66.515625 37  C 66.966796875 37.5  67.33740234375 37.646484375  67.62744140625 37.939453125  Z M 86.18994140625 37.939453125  C 86.47998046875 38.232421875  86.625 38.6067708333333  86.625 39.0625  L 86.625 42.1875  C 86.625 42.6432291666667  86.47998046875 43.017578125  86.18994140625 43.310546875  C 85.89990234375 43.603515625  85.529296875 43.75  85.078125 43.75  L 75.796875 43.75  C 75.345703125 43.75  74.97509765625 43.603515625  74.68505859375 43.310546875  C 74.39501953125 43.017578125  74.25 42.6432291666667  74.25 42.1875  L 74.25 39.0625  C 74.25 38.6067708333333  74.39501953125 38.232421875  74.68505859375 37.939453125  C 74.97509765625 37.646484375  75.345703125 37.5  75.796875 37.5  L 85.078125 37.5  C 85.529296875 37.5  85.89990234375 37.646484375  86.18994140625 37.939453125  Z M 86.18994140625 25.439453125  C 86.47998046875 25.732421875  86.625 26.1067708333333  86.625 26.5625  L 86.625 29.6875  C 86.625 30.1432291666667  86.47998046875 30.517578125  86.18994140625 30.810546875  C 85.89990234375 31.103515625  85.529296875 31.25  85.078125 32  L 51.046875 32  C 50.595703125 31.25  50.22509765625 31.103515625  49.93505859375 30.810546875  C 49.64501953125 30.517578125  49.5 30.1432291666667  49.5 29.6875  L 49.5 26.5625  C 49.5 26.1067708333333  49.64501953125 25.732421875  49.93505859375 25.439453125  C 50.22509765625 25.146484375  50.595703125 25  51.046875 25  L 85.078125 25  C 85.529296875 25  85.89990234375 25.146484375  86.18994140625 25.439453125  Z M 92.353271484375 68.2861328125  C 92.659423828125 67.9768880208333  92.8125 67.6106770833333  92 67.1875  L 92 13  L 7 13  L 7 67.1875  C 6.1875 67.6106770833333  6.340576171875 67.9768880208333  6.646728515625 68.2861328125  C 6.952880859375 68.5953776041667  7.3154296875 68.75  7.734375 68  L 91.265625 68  C 91.6845703125 68.75  92.047119140625 68.5953776041667  92.353271484375 68.2861328125  Z M 96.72802734375 2.294921875  C 98.24267578125 3.82486979166666  99 5.6640625  99 7.8125  L 99 67.1875  C 99 69.3359375  98.24267578125 71.1751302083333  96.72802734375 72.705078125  C 95.21337890625 74.2350260416667  93.392578125 75  91.265625 75  L 7.734375 75  C 5.607421875 75  3.78662109375 74.2350260416667  2.27197265625 72.705078125  C 0.75732421875 71.1751302083333  0 69.3359375  0 67.1875  L 0 7.8125  C 0 5.6640625  0.75732421875 3.82486979166666  2.27197265625 2.294921875  C 3.78662109375 0.764973958333326  5.607421875 0  7.734375 0  L 91.265625 0  C 93.392578125 0  95.21337890625 0.764973958333326  96.72802734375 2.294921875  Z " fill-rule="nonzero" fill="#ffffff" stroke="none" transform="matrix(1 0 0 1 487 464 )" />
  </g>
</svg>