<?xml version="1.0" encoding="utf-8"?>
<svg version="1.1" xmlns:xlink="http://www.w3.org/1999/xlink" width="61px" height="59px" xmlns="http://www.w3.org/2000/svg">
  <g transform="matrix(1 0 0 1 -172 -271 )">
    <path d="M 58.3857142857143 43  C 59.4948051948052 43.7037037037037  60.2606060606061 43.9199459876543  60.6831168831169 44.3524305555556  C 61.1056277056277 44.7849151234568  60.9735930735931 45.1832561728395  60.287012987013 45.5474537037037  L 32.5597402597403 58.6585648148148  C 32.0316017316017 58.8861882716049  31.4242424242424 59  30.7376623376623 59  C 29.9982683982684 59  29.3645021645022 58.8861882716049  28.8363636363636 58.6585648148148  L 0.712987012987013 45.5474537037037  C 0.0264069264069154 45.1832561728395  -0.105627705627707 44.7849151234568  0.316883116883122 44.3524305555556  C 0.792207792207782 43.9199459876543  1.55800865800865 43.7037037037037  2.61428571428572 43  L 21 43  L 21 28.1431524547803  L 20.3597402597403 1.0925925925926  C 20.3597402597403 0.773919753086421  20.5974025974026 0.512152777777787  21.0727272727273 0.307291666666667  C 21.548051948052 0.102430555555546  22.1554112554113 0  22.8948051948052 0  L 38.1051948051948 0  C 38.8445887445887 0  39.4519480519481 0.102430555555546  39.9272727272727 0.307291666666667  C 40.4025974025974 0.512152777777787  40.6402597402597 0.773919753086421  40 1.0925925925926  L 40 43  L 58.3857142857143 43  Z " fill-rule="nonzero" fill="#cd63af" stroke="none" transform="matrix(1 0 0 1 172 271 )" />
  </g>
</svg>