<?xml version="1.0" encoding="utf-8"?>
<svg version="1.1" xmlns:xlink="http://www.w3.org/1999/xlink" width="5px" height="5px" xmlns="http://www.w3.org/2000/svg">
  <g transform="matrix(1 0 0 1 -512 -231 )">
    <path d="M 4.88215488215488 3.73737373737374  C 4.96071829405163 3.81593714927048  5 3.91133557800224  5 4.02356902356902  C 5 4.1358024691358  4.96071829405163 4.23120089786756  4.88215488215488 4.30976430976431  L 4.30976430976431 4.88215488215488  C 4.23120089786757 4.96071829405163  4.1358024691358 5  4.02356902356902 5  C 3.91133557800225 5  3.81593714927048 4.96071829405163  3.73737373737374 4.88215488215488  L 2.5 3.64478114478115  L 1.26262626262626 4.88215488215488  C 1.18406285072952 4.96071829405163  1.08866442199776 5  0.976430976430976 5  C 0.864197530864198 5  0.768799102132436 4.96071829405163  0.69023569023569 4.88215488215488  L 0.117845117845118 4.30976430976431  C 0.0392817059483727 4.23120089786756  0 4.1358024691358  0 4.02356902356902  C 0 3.91133557800224  0.0392817059483727 3.81593714927048  0.117845117845118 3.73737373737374  L 1.35521885521886 2.5  L 0.117845117845118 1.26262626262626  C 0.0392817059483727 1.18406285072952  0 1.08866442199776  0 0.976430976430976  C 0 0.864197530864197  0.0392817059483727 0.768799102132435  0.117845117845118 0.69023569023569  L 0.69023569023569 0.117845117845118  C 0.768799102132436 0.0392817059483724  0.864197530864198 0  0.976430976430976 0  C 1.08866442199776 0  1.18406285072952 0.0392817059483724  1.26262626262626 0.117845117845118  L 2.5 1.35521885521886  L 3.73737373737374 0.117845117845118  C 3.81593714927048 0.0392817059483724  3.91133557800225 0  4.02356902356902 0  C 4.1358024691358 0  4.23120089786757 0.0392817059483724  4.30976430976431 0.117845117845118  L 4.88215488215488 0.69023569023569  C 4.96071829405163 0.768799102132435  5 0.864197530864197  5 0.976430976430976  C 5 1.08866442199776  4.96071829405163 1.18406285072952  4.88215488215488 1.26262626262626  L 3.64478114478114 2.5  L 4.88215488215488 3.73737373737374  Z " fill-rule="nonzero" fill="#ffffff" stroke="none" fill-opacity="0.8" transform="matrix(1 0 0 1 512 231 )" />
  </g>
</svg>